<?xml version="1.0" encoding="UTF-8" standalone="no"?>
<!-- Created with Inkscape (http://www.inkscape.org/) -->

<svg
   width="128"
   height="128"
   viewBox="0 0 33.866666 33.866666"
   version="1.1"
   id="svg1"
   inkscape:export-filename="icon16.png"
   inkscape:export-xdpi="12"
   inkscape:export-ydpi="12"
   inkscape:version="1.4.3 (0d15f75, 2025-12-25)"
   sodipodi:docname="sq-icon.svg"
   xmlns:inkscape="http://www.inkscape.org/namespaces/inkscape"
   xmlns:sodipodi="http://sodipodi.sourceforge.net/DTD/sodipodi-0.dtd"
   xmlns="http://www.w3.org/2000/svg"
   xmlns:svg="http://www.w3.org/2000/svg">
  <sodipodi:namedview
     id="namedview1"
     pagecolor="#ffffff"
     bordercolor="#000000"
     borderopacity="0.25"
     inkscape:showpageshadow="2"
     inkscape:pageopacity="0.0"
     inkscape:pagecheckerboard="0"
     inkscape:deskcolor="#d1d1d1"
     inkscape:document-units="px"
     inkscape:export-bgcolor="#ffffff00"
     inkscape:zoom="2.5423901"
     inkscape:cx="93.612698"
     inkscape:cy="20.256529"
     inkscape:window-width="1996"
     inkscape:window-height="1186"
     inkscape:window-x="0"
     inkscape:window-y="30"
     inkscape:window-maximized="0"
     inkscape:current-layer="layer1" />
  <defs
     id="defs1">
    <rect
       x="32.253117"
       y="190.37204"
       width="262.35156"
       height="63.719566"
       id="rect21" />
  </defs>
  <g
     inkscape:label="Layer 1"
     inkscape:groupmode="layer"
     id="layer1">
    <path
       style="display:inline;fill:#ffffff;fill-opacity:1;stroke-width:0.990078"
       d="M 0,63.719568 V -0.39333066 H 63.719568 127.43914 V 63.719568 127.83247 H 63.719568 0 Z"
       id="path2"
       transform="scale(0.26458333)" />
    <rect
       style="display:none;fill:#a69e9e;stroke-width:0.666001"
       id="rect2"
       width="33.718269"
       height="33.926411"
       x="0"
       y="-0.10406873" />
    <rect
       style="fill:#a69e9e;fill-opacity:1;stroke:none;stroke-width:0.221367"
       id="rect1"
       width="31.828585"
       height="31.361698"
       x="1.0249009"
       y="1.3708978"
       ry="0" />
    <path
       style="display:inline;fill:#000000;stroke-width:0.447551"
       d="m 26.077429,30.962215 c -0.02206,-0.191777 -0.153349,-0.28671 -1.071804,-0.775092 -3.036031,-1.614387 -4.804889,-3.469824 -5.791473,-6.074961 l -0.295491,-0.780261 -0.646513,-0.05212 c -3.066711,-0.247253 -4.961978,-1.873197 -5.570273,-4.778721 -0.07323,-0.349785 -0.148321,-0.710899 -0.166868,-0.802476 -0.01854,-0.09158 -0.375863,-0.623165 -0.794033,-1.181309 -2.9885174,-3.98885 -2.4047142,-5.513544 1.888494,-4.932099 l 1.091613,0.14784 0.538067,-0.516764 c 0.969878,-0.93148 2.332359,-1.7030087 3.661183,-2.0732117 l 0.651735,-0.181569 0.281147,-0.841735 c 1.113664,-3.3342473 2.225301,-3.8644374 3.858465,-1.8402757 0.589134,0.7301818 1.238638,1.9158037 1.534572,2.8012557 0.16043,0.48001 0.262279,0.648589 0.522521,0.864882 L 26.09202,10.214255 V 6.9445984 c 0,-3.512109 0.0089,-3.5876399 0.421333,-3.5876399 0.298589,0 0.294171,-0.2115336 0.292918,14.0271705 -9.3e-4,9.189313 -0.02774,13.79633 -0.08017,13.717134 -0.04771,-0.07206 -0.07237,-0.827045 -0.06231,-1.907918 0.08433,-9.054411 -0.02282,-25.5978966 -0.165778,-25.5978966 -0.240644,0 -0.246999,0.089962 -0.246999,3.4977265 0,2.5260654 0.07674,4.0935121 -4.48e-4,4.1196621 -0.240858,0.08145 -0.941665,-1.4202167 -1.120386,-1.9629587 -0.495301,-1.504152 -1.623,-3.2350805 -2.448884,-3.7588413 -1.036381,-0.6572521 -1.814825,0.1201438 -2.679069,2.6754653 -0.162667,0.480954 -0.30271,0.884272 -0.311209,0.896262 -0.0085,0.01199 -0.270164,0.09239 -0.581479,0.178656 -1.38208,0.382994 -2.82215,1.1908427 -3.82893,2.1479507 -0.591337,0.562163 -0.353082,0.534038 -2.305401,0.272144 -2.171332,-0.291273 -3.0479386,0.04516 -2.88974,1.109068 0.168569,1.133637 0.912507,2.579695 2.088433,4.059475 0.313078,0.393975 0.493641,0.701479 0.526586,0.89679 0.573574,3.400297 2.394368,5.159413 5.596148,5.40658 l 0.750372,0.05793 0.285082,0.755218 c 1.051452,2.785434 2.830481,4.630045 5.993022,6.213951 0.87899,0.440228 0.923007,0.478382 0.924807,0.801621 0.0018,0.284282 -0.13965,0.28434 -0.172366,7.1e-5 z m -0.820124,-1.315444 c -2.41321,-1.260959 -3.96803,-2.828902 -5.179502,-5.22322 -0.668677,-1.321558 -0.671806,-1.296457 0.182812,-1.466184 0.91854,-0.182419 1.061614,-0.243079 1.061614,-0.450105 0,-0.196169 -0.198516,-0.189621 -1.232198,0.04064 -3.438956,0.766064 -6.351474,-1.214389 -6.886068,-4.682387 -0.09441,-0.612448 -0.115704,-0.655873 -0.586055,-1.195185 -1.183268,-1.356756 -2.24971,-3.513201 -2.077241,-4.200373 0.137799,-0.549034 1.277159,-0.582631 3.884504,-0.114549 l 0.535874,0.0962 0.619568,-0.615478 c 1.037814,-1.030965 2.177862,-1.715358 3.515709,-2.1105497 0.327924,-0.09687 0.681143,-0.2011 0.784934,-0.23163 0.158613,-0.04665 0.248226,-0.22667 0.561892,-1.128711 0.551517,-1.5860391 1.041452,-2.460357 1.468819,-2.6211994 0.642759,-0.2419061 2.121706,1.7016771 2.750726,3.6149054 0.100623,0.306062 0.239803,0.603846 0.309289,0.6617427 0.100887,0.08406 0.102315,0.09478 0.0071,0.05321 -0.121603,-0.05309 0.0069,0.06791 0.814844,0.767034 l 0.481802,0.395557 -0.0247,3.875773 v 3.875771 l -0.238487,0.228488 c -0.295495,0.283103 -0.299819,0.399162 -0.01987,0.533336 l 0.218615,0.10478 v 5.080084 c 0,3.317943 0.03008,5.985756 -0.02184,6.001219 -0.04373,0.01302 -0.494866,-1.06071 -0.932101,-1.289173 z M 26.09202,24.94232 v -4.886997 l -0.238487,-0.123329 c -0.315219,-0.163005 -0.315005,-0.448342 4.48e-4,-0.807801 l 0.239095,-0.272315 -0.0041,-1.947545 -0.0041,-1.947546 -0.21487,-0.0817 c -0.57756,-0.219586 -0.618618,-0.462623 -0.135665,-0.803038 0.308908,-0.21774 0.579994,-1.097058 0.337861,-1.095917 -0.01092,5.2e-5 -0.27029,0.04712 -0.576353,0.104604 -1.388259,0.260725 -1.35501,-0.439464 0.05607,-1.180971 0.675149,-0.354779 0.684668,-0.462529 0.08539,-0.966182 -0.861258,-0.723833 -0.939643,-0.82489 -1.128926,-1.4553937 -0.468702,-1.561293 -1.867479,-3.5773457 -2.482034,-3.5773457 -0.344928,0 -1.010324,1.2216175 -1.472219,2.7028837 -0.177075,0.567866 -0.346235,0.963038 -0.446514,1.043096 -0.161445,0.128885 -0.161445,0.128885 0.0099,0.8119627 0.607367,2.421652 -0.431105,2.306346 -1.410711,-0.156637 -0.09333,-0.23463 -0.112785,-0.244096 -0.331768,-0.161438 -0.2937,0.110858 -0.319626,-0.01448 0.291642,1.409917 1.296834,3.021932 -0.08121,2.934526 -1.883093,-0.11944 l -0.167163,-0.283319 -0.234151,0.166728 -0.23415,0.166731 0.222054,0.290101 c 1.581696,2.066394 1.060442,2.971866 -0.680836,1.182683 -0.398658,-0.409625 -0.445346,-0.435022 -0.729622,-0.396893 -0.16704,0.0224 -0.726623,-0.04064 -1.243516,-0.140108 -1.482514,-0.285275 -2.899957,-0.254421 -3.001443,0.06533 -0.194098,0.611547 0.976062,2.913646 2.077768,4.087667 0.275328,0.293401 0.500596,0.564583 0.500596,0.60263 0,0.167496 0.309992,1.767785 0.357249,1.84425 0.03286,0.05317 0.191172,-0.01617 0.423949,-0.185685 1.000259,-0.72843 1.762693,-0.829266 1.762693,-0.233122 0,0.06813 -0.339848,0.469785 -0.755218,0.892563 -0.835314,0.850208 -0.848069,0.881563 -0.516433,1.269434 l 0.232322,0.271718 0.635577,-0.607228 c 0.349568,-0.333974 0.723681,-0.629339 0.831364,-0.656365 0.652516,-0.163772 0.679383,0.205037 0.09132,1.253689 -0.245848,0.438407 -0.436354,0.802847 -0.423345,0.809865 0.569115,0.307034 1.663978,0.58711 2.535585,0.648624 0.647064,0.04566 1.119428,-0.01231 2.396557,-0.294191 0.493993,-0.109028 0.575322,-0.07784 0.651437,0.249837 0.07572,0.325965 -0.06286,0.419515 -0.938085,0.633276 l -0.834234,0.20375 0.242517,0.55532 c 0.333408,0.763442 0.324421,0.75551 0.722419,0.637631 1.443152,-0.427433 1.769269,-0.06911 0.850084,0.934013 l -0.463068,0.505359 0.358162,0.451481 c 0.423151,0.53341 0.399126,0.528007 0.747039,0.167999 1.013014,-1.048232 1.553348,-0.690674 1.025336,0.678506 l -0.250911,0.650626 0.180045,0.191648 c 0.373128,0.397176 2.597328,1.774891 2.876959,1.782047 0.0328,8.45e-4 0.05963,-2.197624 0.05963,-4.885473 z m -0.317986,2.223863 c 0,-0.02186 0.0179,-0.03974 0.03974,-0.03974 0.02189,0 0.03974,0.01788 0.03974,0.03974 0,0.02186 -0.0179,0.03974 -0.03974,0.03974 -0.02184,0 -0.03974,-0.01789 -0.03974,-0.03974 z M 25.5677,27.034655 c -0.03514,-0.05686 -0.02179,-0.0702 0.03504,-0.03506 0.09164,0.05664 0.123037,0.126837 0.05673,0.126837 -0.01929,0 -0.06059,-0.0413 -0.09178,-0.09178 z m -0.19115,-0.106962 c 0,-0.02186 0.0179,-0.03974 0.03974,-0.03974 0.02184,0 0.03974,0.01788 0.03974,0.03974 0,0.02186 -0.0179,0.03974 -0.03974,0.03974 -0.02189,0 -0.03974,-0.01789 -0.03974,-0.03974 z m -0.206329,-0.131528 c -0.03514,-0.05686 -0.02179,-0.0702 0.03504,-0.03506 0.05048,0.0312 0.09178,0.0725 0.09178,0.09178 0,0.06631 -0.0702,0.03492 -0.126836,-0.05672 z m -0.238492,-0.158993 c -0.03514,-0.05686 -0.02179,-0.07021 0.03504,-0.03506 0.09164,0.05663 0.123032,0.126836 0.05673,0.126836 -0.01929,0 -0.06058,-0.0413 -0.09178,-0.09178 z m -0.47115,-0.318481 c -0.452868,-0.359844 -1.595386,-1.481406 -1.890058,-1.855392 -0.137801,-0.174892 0.124164,0.06154 0.582147,0.525397 0.45798,0.463861 1.028831,1.009406 1.268557,1.212323 0.493045,0.417337 0.520749,0.500181 0.03934,0.117672 z m -2.32494,-2.431742 c -0.205806,-0.297237 -0.27271,-0.417357 -0.232444,-0.417357 0.01862,0 0.128572,0.143093 0.244309,0.317986 0.235224,0.355446 0.224962,0.441401 -0.01187,0.09937 z m -0.383771,-0.588634 c -0.03514,-0.05686 -0.02179,-0.07019 0.03504,-0.03506 0.05048,0.0312 0.09178,0.0725 0.09178,0.09178 0,0.06632 -0.0702,0.03492 -0.126835,-0.05672 z m -0.111654,-0.186458 c 0,-0.02186 0.0179,-0.03974 0.03974,-0.03974 0.02188,0 0.03974,0.01789 0.03974,0.03974 0,0.02186 -0.0179,0.03974 -0.03974,0.03974 -0.02188,0 -0.03974,-0.01788 -0.03974,-0.03974 z m -1.470686,-3.500141 c -0.174893,-0.06301 -0.325673,-0.115097 -0.335063,-0.115756 -0.07719,-0.0054 -0.18026,-0.35737 -0.140938,-0.481263 0.08396,-0.264541 0.313492,-0.332957 0.62257,-0.185569 0.355607,0.169576 0.650722,0.09413 0.805941,-0.206031 0.259822,-0.502436 0.145921,-0.754402 -0.375781,-0.831291 -1.062352,-0.156569 -1.058289,-0.747795 0.0088,-1.28126 1.037034,-0.518442 1.46134,-0.255261 1.049776,0.65114 -0.149867,0.330058 -0.149867,0.330058 0.06137,0.524948 0.462588,0.426795 0.97269,0.30373 1.129485,-0.272494 0.05149,-0.189213 0.106293,-0.388739 0.121788,-0.443393 0.03594,-0.126749 0.448114,-0.129603 0.573742,-0.004 0.539487,0.539486 -0.332248,1.733026 -1.26576,1.733026 -0.424717,0 -0.472623,0.01816 -0.576916,0.218615 -0.336657,0.64712 -1.021858,0.930054 -1.67902,0.693304 z m 1.088088,-0.314206 c 0.163324,-0.11098 0.352401,-0.338039 0.432302,-0.519145 0.141199,-0.320035 0.14401,-0.321593 0.486722,-0.270199 0.865358,0.129768 1.84102,-0.860633 1.340697,-1.360952 -0.172249,-0.172249 -0.256929,-0.09952 -0.316279,0.271624 -0.111615,0.697996 -0.894082,0.956057 -1.441504,0.475414 -0.344808,-0.302746 -0.392293,-0.266816 -0.367069,0.27773 0.03361,0.725192 -0.46996,1.138865 -1.077372,0.885073 -0.314396,-0.131364 -0.481445,-0.0656 -0.396392,0.156036 0.12489,0.325459 0.911215,0.375037 1.338895,0.08442 z m 2.052027,-2.147896 c 0,-0.02186 0.0179,-0.03974 0.03974,-0.03974 0.02184,0 0.03974,0.01788 0.03974,0.03974 0,0.02186 -0.0179,0.03974 -0.03974,0.03974 -0.02188,0 -0.03974,-0.01788 -0.03974,-0.03974 z m -1.948984,0.391035 c 0.406838,-0.266571 0.570011,-1.161676 0.220809,-1.211289 -0.221448,-0.03147 -1.138302,0.412293 -1.377155,0.666542 -0.387114,0.412065 0.628581,0.890553 1.156346,0.544747 z m -4.201009,0.522164 c -0.785875,-0.690008 -0.566405,-1.82741 0.352612,-1.82741 0.608476,0 1.205194,0.803262 1.066344,1.435442 -0.13407,0.610419 -0.922197,0.828129 -1.418956,0.391968 z m 1.026075,-0.11462 c 0.465372,-0.46537 0.08324,-1.415477 -0.613871,-1.526257 -0.780301,-0.124002 -0.964229,0.99755 -0.255072,1.555373 0.284991,0.224175 0.627117,0.212711 0.868943,-0.02912 z m -5.453783,-2.246965 c -0.610371,-0.695174 -1.432545,-2.209429 -1.414911,-2.605939 0.0071,-0.158993 0.0071,-0.158993 0.04618,0 0.250113,1.016888 1.668622,3.116511 1.821174,2.695632 0.03025,-0.08345 0.27913,-0.646536 0.553066,-1.251285 l 0.498062,-1.099544 -0.332101,-0.150781 c -0.390194,-0.177158 -0.2584,-0.208652 0.153298,-0.03663 0.322132,0.134596 0.319873,0.177259 -0.04848,0.915816 -0.119938,0.240478 -0.352045,0.750249 -0.515794,1.132826 -0.335413,0.78365 -0.395721,0.815362 -0.760492,0.39991 z m 10.14047,-0.478036 c -1.021277,-0.255707 -1.147638,-2.088155 -0.143996,-2.088155 1.022298,0 1.575923,1.606405 0.697317,2.023331 -0.269525,0.127898 -0.291248,0.130442 -0.553321,0.06483 z m 0.617455,-0.319356 c 0.465677,-0.516736 0.0078,-1.533957 -0.699545,-1.554006 -0.536046,-0.0152 -0.761155,0.560851 -0.463936,1.187195 0.219157,0.461839 0.887856,0.67266 1.163481,0.366811 z M 13.357664,13.080732 c 0.05738,-0.02297 0.125952,-0.02014 0.152369,0.0063 0.02642,0.02642 -0.02054,0.04521 -0.10434,0.04175 -0.09261,-0.0038 -0.111446,-0.02266 -0.04803,-0.04803 z m -0.303081,-0.06494 c 0,-0.02186 0.01789,-0.03974 0.03974,-0.03974 0.02186,0 0.03974,0.01789 0.03974,0.03974 0,0.02186 -0.01788,0.03975 -0.03974,0.03975 -0.02186,0 -0.03974,-0.01789 -0.03974,-0.03975 z m -0.397483,-0.0795 c 0,-0.02186 0.01788,-0.03974 0.03974,-0.03974 0.02186,0 0.03974,0.01789 0.03974,0.03974 0,0.02186 -0.01788,0.03974 -0.03974,0.03974 -0.02186,0 -0.03974,-0.01788 -0.03974,-0.03974 z m -1.351441,-0.0795 c 0,-0.02186 0.01788,-0.03974 0.03974,-0.03974 0.02186,0 0.03974,0.01788 0.03974,0.03974 0,0.02186 -0.01788,0.03974 -0.03974,0.03974 -0.02186,0 -0.03974,-0.01789 -0.03974,-0.03974 z m 12.56046,-3.0208697 c 0,-0.02186 0.0179,-0.03974 0.03974,-0.03974 0.02189,0 0.03974,0.01788 0.03974,0.03974 0,0.02186 -0.0179,0.03974 -0.03974,0.03974 -0.02184,0 -0.03974,-0.01788 -0.03974,-0.03974 z m -0.29149,-0.09275 c 0.02913,-0.02915 0.07685,-0.02915 0.105998,0 0.02913,0.02915 0.0052,0.053 -0.053,0.053 -0.0583,0 -0.08214,-0.02385 -0.05299,-0.053 z m -0.359388,-0.08081 c 0.05738,-0.02297 0.12595,-0.02014 0.152364,0.0063 0.02641,0.02642 -0.02054,0.04521 -0.104337,0.04175 -0.09261,-0.0038 -0.111445,-0.02265 -0.04802,-0.04803 z m 0.809871,-0.02519 c 0,-0.0583 0.02386,-0.08214 0.053,-0.05299 0.02913,0.02915 0.02913,0.07685 0,0.105995 -0.02914,0.02915 -0.053,0.0053 -0.053,-0.053 z m -1.127861,-0.05431 c 0.05739,-0.02297 0.125954,-0.02014 0.152369,0.0063 0.02641,0.02642 -0.02054,0.04521 -0.104338,0.04175 -0.09261,-0.0038 -0.111444,-0.02265 -0.04803,-0.04803 z m -0.599678,-0.08028 c 0.07735,-0.02016 0.184668,-0.01883 0.23849,0.003 0.05382,0.02177 -0.0094,0.03827 -0.140633,0.03664 -0.131169,-0.0016 -0.175203,-0.01943 -0.09786,-0.03959 z m -1.213836,-0.302645 c 0,-0.15303 0.01396,-0.278238 0.03106,-0.278238 0.0171,0 0.04567,0.125208 0.06353,0.278238 0.01786,0.153031 0.0041,0.278238 -0.03106,0.278238 -0.03496,0 -0.06353,-0.125207 -0.06353,-0.278238 z m 0.344485,0.225241 c 0.02913,-0.02915 0.07685,-0.02915 0.105998,0 0.02913,0.02915 0.0052,0.05299 -0.053,0.05299 -0.0583,0 -0.08214,-0.02385 -0.05299,-0.05299 z m 2.517391,-0.0265 c 0,-0.0583 0.02386,-0.08215 0.053,-0.053 0.02913,0.02915 0.02913,0.07685 0,0.105995 -0.02913,0.02915 -0.053,0.0053 -0.053,-0.053 z m -0.0795,-0.198742 c 0,-0.02186 0.0179,-0.03975 0.03974,-0.03975 0.02189,0 0.03974,0.01789 0.03974,0.03975 0,0.02186 -0.0179,0.03974 -0.03974,0.03974 -0.02184,0 -0.03974,-0.01788 -0.03974,-0.03974 z M 23.595842,8.6213653 C 23.298574,8.0114673 22.549315,6.8896924 22.331966,6.729119 c -0.09627,-0.071118 -0.121371,-0.1139919 -0.05579,-0.09527 0.282683,0.080698 1.712904,2.2708733 1.573774,2.4100033 -0.01781,0.01782 -0.132166,-0.172302 -0.254111,-0.422487 z m -2.426337,0.138179 c -0.02206,-0.430564 0.676412,-2.1432468 0.874085,-2.1432468 0.04825,0 -0.0046,0.1097104 -0.117415,0.2437996 -0.119639,0.142186 -0.307409,0.5812053 -0.450509,1.0533302 -0.30962,1.021508 -0.298713,0.991366 -0.306161,0.846117 z M 22.987691,27.395088 C 23.621563,25.96211 23.323225,25.61525 22.330695,26.63124 l -0.382715,0.39176 0.411188,0.369694 c 0.496321,0.446235 0.432299,0.445991 0.628523,0.0024 z m -1.559855,-2.074453 c 0.571667,-0.616697 0.647701,-0.897105 0.243249,-0.897105 -0.288353,0 -1.315421,0.243897 -1.287131,0.305654 0.204862,0.447204 0.57863,1.031782 0.63674,0.995868 0.04154,-0.02567 0.224756,-0.207661 0.407142,-0.404417 z m -5.528882,-3.818602 c 1.138417,-1.633913 0.890856,-2.144789 -0.447439,-0.923353 -0.62044,0.566265 -0.620815,0.56852 -0.151169,0.908729 0.394438,0.28573 0.409461,0.286097 0.598608,0.01462 z M 14.953843,19.40361 c 0.74125,-0.785006 0.842117,-0.973636 0.567289,-1.060863 -0.235238,-0.07466 -1.830577,0.764616 -1.830577,0.963032 0,0.09587 0.441999,0.902303 0.485349,0.885529 0.0296,-0.01145 0.37967,-0.365918 0.777939,-0.787698 z M 26.09202,14.402291 c 0,-0.430336 -0.03079,-0.440828 -0.377608,-0.128618 -0.230681,0.207668 -0.225356,0.262003 0.03974,0.405825 0.322049,0.174714 0.33786,0.161739 0.33786,-0.277207 z m -8.928827,-0.839237 c 0.08733,-0.227577 -0.928119,-1.938451 -1.15052,-1.938451 -0.03471,0 -0.222595,0.1635 -0.417522,0.363333 l -0.354412,0.363334 0.542072,0.515623 c 0.813347,0.773663 1.26352,1.000697 1.380382,0.696161 z m 1.977136,-0.05894 c 0.08778,-0.349747 -1.003599,-3.084341 -1.250879,-3.13424 -0.08384,-0.01692 -0.971714,0.487104 -1.164936,0.661294 -0.08991,0.08106 1.533868,2.210237 1.921426,2.519463 0.242695,0.193642 0.438742,0.175196 0.494389,-0.04652 z m 6.645377,-0.610705 c 0.306314,-0.08248 0.306314,-0.08248 0.306314,-0.556397 0,-0.555742 -0.01396,-0.560529 -0.648802,-0.222173 -1.235854,0.658703 -1.02155,1.145867 0.342488,0.77857 z m -5.661474,-1.019951 c 0.08708,-0.162704 0.007,-0.803417 -0.207386,-1.659915 -0.141025,-0.5633327 -0.187769,-0.5830377 -0.83399,-0.3515737 l -0.371202,0.132958 0.331453,0.7155397 c 0.586738,1.266646 0.865289,1.566289 1.081125,1.162991 z"
       id="path1"
       sodipodi:nodetypes="ssscssssscsscsssscsscsssscssssssssssscsscscsssssssscssssssscscccsscssccccsccccsssssscsssssssscccsssssssssssscsssssssscssscssscssccsssssccsccsssssccsccccscccsssccsssssssssssssscsssssssssscssccssssssssssssssssssssssssssssssssscsssssssssssssssscssssssssssssssssssssssccscsscsssssssscssssssssssssssssssssssssssssssssssscscsccssssssssssssssssssssssscssssssssscsssscss" />
    <path
       style="fill:#a5917c;fill-opacity:1;stroke:none;stroke-width:0.0207253"
       d="m 17.64163,18.123352 c -0.159096,-0.03113 -0.28871,-0.106443 -0.432262,-0.251167 -0.292,-0.294383 -0.404607,-0.728009 -0.279115,-1.074819 0.09518,-0.263036 0.336629,-0.412613 0.60593,-0.375367 0.263393,0.03643 0.485775,0.175579 0.650342,0.406935 0.130717,0.183766 0.196264,0.38575 0.195398,0.602117 -7.16e-4,0.164995 -0.03493,0.288021 -0.112708,0.404604 -0.146386,0.219422 -0.39472,0.333262 -0.627585,0.287697 z"
       id="path5" />
    <path
       style="fill:#a5917c;fill-opacity:1;stroke:none;stroke-width:0.0207253"
       d="m 22.973796,15.026481 c -0.180717,-0.0392 -0.343957,-0.129924 -0.478835,-0.266106 -0.09067,-0.09155 -0.140286,-0.166826 -0.193199,-0.293117 -0.074,-0.176625 -0.108335,-0.352781 -0.10036,-0.51489 0.01656,-0.336459 0.204281,-0.559196 0.50086,-0.594263 0.217094,-0.02567 0.45669,0.06688 0.637939,0.246418 0.302688,0.299825 0.413967,0.757357 0.268442,1.103722 -0.07125,0.169577 -0.204854,0.291009 -0.354183,0.321921 -0.05944,0.01231 -0.216463,0.01025 -0.280664,-0.0036 z"
       id="path6" />
    <path
       style="fill:#a5917c;fill-opacity:1;stroke:none;stroke-width:0.0207253"
       d="m 20.795085,17.648454 c -0.220491,-0.02679 -0.435656,-0.119775 -0.560241,-0.242104 -0.102373,-0.100526 -0.132936,-0.199639 -0.09394,-0.304642 0.04601,-0.123874 0.306067,-0.313489 0.701559,-0.511519 0.31248,-0.156464 0.596572,-0.25877 0.716824,-0.25814 0.07387,3.56e-4 0.146001,0.05882 0.177924,0.144144 0.0833,0.222634 -0.01334,0.633279 -0.211002,0.896655 -0.107247,0.142894 -0.240174,0.225717 -0.424498,0.264491 -0.07452,0.01568 -0.224385,0.02111 -0.306626,0.01112 z"
       id="path7" />
    <path
       style="fill:#a5917c;fill-opacity:1;stroke:none;stroke-width:0.0207253"
       d="m 20.43281,19.479566 c -0.157918,-0.01434 -0.313591,-0.06792 -0.409961,-0.141097 -0.09649,-0.07326 -0.148543,-0.215608 -0.104969,-0.287064 0.02479,-0.04065 0.06018,-0.0553 0.132068,-0.05466 0.0731,5.82e-4 0.125874,0.01379 0.273445,0.06809 0.13657,0.05025 0.223359,0.06746 0.34021,0.06744 0.193096,-3.5e-5 0.332419,-0.05423 0.467127,-0.181697 0.13099,-0.123951 0.211106,-0.282917 0.249797,-0.495667 0.01128,-0.06201 0.01423,-0.133087 0.01509,-0.365171 0.0014,-0.314209 0.0041,-0.336464 0.04829,-0.369478 0.01888,-0.0141 0.02565,-0.01495 0.05282,-0.0068 0.04444,0.01346 0.11579,0.06249 0.22399,0.153932 0.111664,0.09437 0.170106,0.135047 0.254805,0.177359 0.234168,0.11698 0.501046,0.129171 0.732046,0.03344 0.14391,-0.05964 0.287279,-0.18214 0.371692,-0.31759 0.06122,-0.09824 0.09671,-0.197655 0.129409,-0.362562 0.01526,-0.07699 0.03379,-0.158497 0.04122,-0.181139 0.03299,-0.100969 0.07336,-0.15232 0.119733,-0.15232 0.07727,0 0.208743,0.133435 0.255538,0.259356 0.01544,0.04155 0.01831,0.06576 0.01812,0.152321 -2.37e-4,0.09477 -0.0022,0.109306 -0.0277,0.183518 -0.132931,0.389885 -0.607014,0.756036 -1.084613,0.837686 -0.121747,0.02082 -0.253502,0.02069 -0.401794,-3.55e-4 -0.208814,-0.02966 -0.274653,-0.01905 -0.326967,0.05268 -0.01361,0.01865 -0.0613,0.108002 -0.105998,0.198572 -0.08946,0.181259 -0.145244,0.263209 -0.262874,0.386182 -0.123851,0.129478 -0.222299,0.198571 -0.364844,0.256048 -0.178707,0.07206 -0.431681,0.107445 -0.63567,0.08891 z m 2.941669,-2.295989 c 0.02135,-0.01495 0.02395,-0.04624 0.0054,-0.06481 -0.03285,-0.03285 -0.08676,0.0031 -0.07015,0.04684 0.01204,0.0317 0.0358,0.03828 0.06478,0.01797 z"
       id="path8" />
    <path
       style="fill:#e4bb39;fill-opacity:0.551839;stroke:none;stroke-width:0.0829008"
       d="m 25.599319,29.618607 c -0.862462,-0.447549 -2.17261,-1.313919 -2.491124,-1.647325 l -0.111682,-0.1169 0.169761,-0.446763 c 0.09337,-0.24572 0.19157,-0.539267 0.218231,-0.652327 0.0931,-0.394886 0.04758,-0.7706 -0.100239,-0.827325 -0.249272,-0.09565 -0.56028,0.06945 -1.089568,0.578423 -0.147222,0.141575 -0.288715,0.25741 -0.314422,0.25741 -0.05945,0 -0.21589,-0.16653 -0.51886,-0.552313 l -0.239762,-0.305306 0.276622,-0.303978 c 0.518475,-0.569749 0.685362,-0.824162 0.685362,-1.0448 0,-0.321409 -0.394247,-0.36338 -1.275185,-0.135755 -0.217357,0.05616 -0.384173,0.08293 -0.424301,0.06809 -0.03639,-0.01345 -0.111915,-0.111225 -0.16788,-0.217269 -0.11729,-0.222231 -0.445199,-0.970864 -0.431056,-0.984126 0.0052,-0.0049 0.305902,-0.08249 0.668177,-0.172432 0.707525,-0.17565 0.946494,-0.269038 1.04923,-0.410031 0.05977,-0.08203 0.06171,-0.104524 0.02363,-0.27475 -0.05114,-0.228517 -0.127315,-0.311058 -0.287059,-0.311058 -0.06595,0 -0.447579,0.06593 -0.848056,0.146514 -0.897948,0.180683 -1.342892,0.230579 -1.808042,0.202757 -0.699479,-0.04184 -1.61573,-0.237233 -2.249776,-0.479768 -0.430748,-0.164769 -0.424136,-0.100273 -0.07617,-0.743062 0.380166,-0.702277 0.494238,-0.968689 0.515587,-1.20414 0.01447,-0.159547 0.0068,-0.196466 -0.05316,-0.256441 -0.07746,-0.07746 -0.238622,-0.0915 -0.432339,-0.03766 -0.153539,0.04267 -0.548687,0.359881 -1.064211,0.854304 l -0.421994,0.404721 -0.121423,-0.139829 c -0.165267,-0.190322 -0.30256,-0.394419 -0.30256,-0.449784 0,-0.120061 0.170026,-0.339845 0.659417,-0.852393 0.292779,-0.306632 0.599041,-0.646058 0.680583,-0.754283 0.128029,-0.169921 0.145727,-0.212371 0.129706,-0.311105 -0.06101,-0.37596 -0.56466,-0.395738 -1.203448,-0.04725 -0.11621,0.0634 -0.366498,0.218494 -0.556196,0.344662 -0.189697,0.126169 -0.361059,0.224013 -0.380803,0.21743 -0.01975,-0.0066 -0.05507,-0.07753 -0.07849,-0.157668 -0.05754,-0.196809 -0.304663,-1.49424 -0.304663,-1.599481 0,-0.10606 -0.07703,-0.214484 -0.429547,-0.604611 -0.722207,-0.799258 -1.301717,-1.67944 -1.770217,-2.688669 -0.27063,-0.582987 -0.380068,-0.93809 -0.383044,-1.242891 -0.0024,-0.241105 0.0034,-0.263854 0.0816,-0.322738 0.200124,-0.150678 1.03631,-0.200064 1.876849,-0.11085 0.245305,0.02604 0.712149,0.09367 1.037429,0.150304 0.346574,0.06033 0.761854,0.109561 1.003098,0.1189 0.226424,0.0088 0.446192,0.02306 0.488377,0.03176 0.04218,0.0087 0.273346,0.206284 0.513692,0.439065 0.240349,0.232781 0.528651,0.490709 0.640671,0.573174 0.673058,0.495478 1.067428,0.40386 0.912278,-0.211933 -0.101964,-0.404693 -0.503207,-1.116354 -0.952983,-1.690253 -0.08411,-0.107321 -0.152743,-0.203654 -0.15252,-0.214073 3.56e-4,-0.01712 0.04943,-0.05283 0.33225,-0.241835 l 0.08712,-0.05822 0.280862,0.453431 c 0.702546,1.134211 1.324208,1.858913 1.788063,2.084443 0.176571,0.08585 0.287204,0.08216 0.398144,-0.01326 0.225299,-0.193816 0.101355,-0.9669 -0.31715,-1.978039 -0.06793,-0.164119 -0.216797,-0.520705 -0.330819,-0.792413 -0.114021,-0.271707 -0.208691,-0.543612 -0.210376,-0.604234 -0.0028,-0.101683 0.009,-0.115013 0.15275,-0.17211 0.0857,-0.03404 0.176054,-0.05412 0.200791,-0.04463 0.02473,0.0095 0.108256,0.168454 0.185597,0.353249 0.594539,1.420549 1.281883,2.129545 1.503058,1.550405 0.08852,-0.231793 0.04684,-0.821964 -0.103228,-1.461423 -0.171134,-0.7292497 -0.173331,-0.7588117 -0.06495,-0.8753577 0.133845,-0.14393 0.253386,-0.405395 0.427944,-0.936027 0.462339,-1.4054474 0.987549,-2.47527 1.351454,-2.7528322 0.152145,-0.1160493 0.27962,-0.090848 0.543376,0.1074213 0.724491,0.5446098 1.681669,2.1283529 2.122435,3.5117719 0.155417,0.4877997 0.282652,0.6420517 1.137322,1.3788287 0.225879,0.194719 0.39521,0.391447 0.39521,0.459145 0,0.07458 -0.221439,0.260661 -0.482017,0.40506 -0.808949,0.44828 -1.200807,0.836765 -1.115414,1.105813 0.06076,0.191437 0.520372,0.230161 1.211034,0.102035 0.213154,-0.03954 0.403762,-0.06188 0.423567,-0.04964 0.07167,0.04429 0.01423,0.385577 -0.108331,0.643662 -0.09161,0.192904 -0.162147,0.285948 -0.322559,0.425467 -0.225807,0.196404 -0.312722,0.330273 -0.285318,0.439458 0.02909,0.115885 0.190688,0.245421 0.434505,0.348282 l 0.228068,0.09622 0.0085,1.937953 0.0085,1.937953 -0.167474,0.196485 c -0.390229,0.457823 -0.394866,0.726358 -0.01597,0.924345 l 0.182762,0.0955 8e-5,4.070284 c 8.6e-5,4.522165 -0.01755,5.661795 -0.08758,5.661795 -0.0243,0 -0.196077,-0.07881 -0.381712,-0.175147 z m 0.264212,-2.453421 c 0.0072,-0.02151 -0.01043,-0.03911 -0.03912,-0.03911 -0.02868,0 -0.05214,0.02347 -0.05214,0.05214 0,0.05816 0.0709,0.04803 0.09125,-0.01304 z m -0.157121,-0.06122 c 0,-0.03322 -0.10496,-0.142565 -0.136844,-0.142565 -0.04117,0 -0.03375,0.07971 0.01168,0.12515 0.04238,0.04237 0.125149,0.05389 0.125149,0.01741 z m -0.247009,-0.175493 c 0,-0.02415 -0.01853,-0.05009 -0.04117,-0.05764 -0.02448,-0.0081 -0.04117,0.01519 -0.04117,0.05764 0,0.04245 0.01669,0.0658 0.04117,0.05764 0.02265,-0.0075 0.04117,-0.03349 0.04117,-0.05764 z m -0.148202,-0.07048 c 0,-0.03832 -0.09533,-0.124193 -0.139971,-0.126087 -0.03871,-0.0017 -0.02891,0.08036 0.01481,0.124104 0.05007,0.05008 0.125149,0.05126 0.125149,0.0019 z M 25.080657,26.70303 c 0,-0.04434 -0.124402,-0.144776 -0.163276,-0.131817 -0.04907,0.01636 0.05482,0.159646 0.115746,0.159646 0.02614,0 0.04753,-0.01252 0.04753,-0.02783 z m -0.592473,-0.459566 c -0.190004,-0.175722 -0.697102,-0.664069 -1.126881,-1.085217 -0.737757,-0.72294 -0.905592,-0.866163 -0.813625,-0.694329 0.05619,0.104997 1.138941,1.198492 1.530817,1.546006 0.665491,0.590161 1.003867,0.78305 0.409689,0.23354 z m -2.141068,-2.13622 c 0,-0.07174 -0.382656,-0.636878 -0.431237,-0.636878 -0.05048,0 -0.03361,0.06113 0.05697,0.206494 0.208262,0.334205 0.374264,0.525094 0.374264,0.430384 z m -0.466903,-0.756846 c -0.01271,-0.06468 -0.113118,-0.134343 -0.146089,-0.10137 -0.02605,0.02606 0.07922,0.155474 0.126495,0.155474 0.01665,0 0.02546,-0.02435 0.0196,-0.0541 z m -0.158849,-0.223893 c 0,-0.0261 -0.01378,-0.05598 -0.03065,-0.06641 -0.03916,-0.0242 -0.07853,0.03747 -0.05168,0.08093 0.0303,0.049 0.08234,0.03982 0.08234,-0.01452 z m -0.779872,-3.459886 c 0.386004,-0.100541 0.648502,-0.298256 0.877613,-0.661029 0.07267,-0.115065 0.160943,-0.224632 0.196166,-0.243482 0.03522,-0.01885 0.143802,-0.03427 0.241293,-0.03427 0.468107,0 0.811911,-0.135487 1.147758,-0.45231 0.414724,-0.391227 0.569733,-0.870955 0.386671,-1.196671 -0.107641,-0.191515 -0.350666,-0.272996 -0.577936,-0.193769 -0.08912,0.03107 -0.106311,0.06142 -0.172558,0.304642 -0.142429,0.522909 -0.32119,0.729467 -0.627315,0.724849 -0.08419,-0.0013 -0.2039,-0.02813 -0.266015,-0.05971 -0.175387,-0.08914 -0.390749,-0.276279 -0.411054,-0.357188 -0.01078,-0.04291 0.02255,-0.175388 0.08053,-0.320184 0.192854,-0.481642 0.206065,-0.710191 0.04952,-0.856831 -0.07345,-0.0688 -0.113947,-0.07873 -0.304138,-0.07454 -0.249448,0.0055 -0.537684,0.102504 -0.924816,0.311286 -0.619904,0.334312 -0.837556,0.67775 -0.604816,0.954344 0.110764,0.131637 0.279062,0.207272 0.613821,0.275856 0.142276,0.02915 0.307069,0.07322 0.366204,0.09792 0.238724,0.09975 0.279671,0.339948 0.11435,0.670785 -0.173158,0.346515 -0.374135,0.407961 -0.822264,0.251395 -0.291481,-0.101838 -0.4194,-0.08871 -0.540748,0.05551 -0.09876,0.117372 -0.113419,0.324038 -0.0361,0.509077 0.05411,0.129509 0.149882,0.180279 0.526281,0.278994 0.286917,0.07524 0.444065,0.07875 0.687555,0.01533 z M 18.210865,18.18792 c 0.304595,-0.178505 0.453054,-0.522043 0.384905,-0.890689 -0.07647,-0.413664 -0.360887,-0.80357 -0.712395,-0.976616 -0.191816,-0.09443 -0.234326,-0.103097 -0.435064,-0.08869 -0.363285,0.02608 -0.567123,0.162477 -0.703667,0.470863 -0.222137,0.501695 0.06332,1.214812 0.597536,1.492733 0.198874,0.103462 0.229631,0.109876 0.463852,0.09672 0.197455,-0.01109 0.28363,-0.0333 0.404833,-0.104327 z m -5.058928,-2.245466 c 0.07797,-0.05461 0.237603,-0.350238 0.423764,-0.784774 0.06133,-0.143145 0.24516,-0.545458 0.408523,-0.89403 0.348935,-0.744538 0.371762,-0.831117 0.245336,-0.930563 -0.161414,-0.126968 -0.619363,-0.266178 -0.56008,-0.170257 0.0115,0.0186 0.137605,0.0925 0.280243,0.164214 l 0.259343,0.130395 -0.214475,0.46977 c -0.11796,0.258375 -0.357689,0.792116 -0.53273,1.186092 -0.178309,0.401333 -0.337038,0.71632 -0.36097,0.71632 -0.0734,0 -0.333648,-0.2643 -0.570404,-0.579296 -0.460673,-0.612909 -0.921926,-1.454614 -1.107779,-2.021499 l -0.09211,-0.280953 -0.01022,0.141947 c -0.01329,0.184552 0.05628,0.394489 0.291279,0.879015 0.46749,0.963862 1.213667,2.006285 1.4489,2.024139 0.0096,7.17e-4 0.05068,-0.02201 0.09138,-0.05052 z M 23.450411,15.15929 c 0.144433,-0.08016 0.224192,-0.152467 0.296409,-0.268733 0.09272,-0.149281 0.09881,-0.179493 0.09881,-0.490994 0,-0.30434 -0.0086,-0.350207 -0.104222,-0.551913 -0.212649,-0.448851 -0.538726,-0.688661 -0.964885,-0.709609 -0.213289,-0.01048 -0.266691,-0.0014 -0.379031,0.06399 -0.254737,0.148424 -0.40212,0.499114 -0.36999,0.880357 0.04681,0.555496 0.332875,0.979174 0.761052,1.127183 0.261154,0.09027 0.431985,0.0773 0.661861,-0.05028 z m -9.929682,-2.063212 c 0,-0.01811 -0.04358,-0.03294 -0.09686,-0.03294 -0.05328,0 -0.106019,0.01482 -0.117213,0.03294 -0.01212,0.01959 0.0271,0.03294 0.09686,0.03294 0.06446,0 0.117214,-0.01482 0.117214,-0.03294 z m -0.362277,-0.06392 c 0,-0.04447 -0.06004,-0.0753 -0.09934,-0.05102 -0.01841,0.01138 -0.02495,0.03448 -0.01452,0.05135 0.02473,0.04001 0.113865,0.03974 0.113865,-3.55e-4 z m -0.402758,-0.09457 c 0.0073,-0.02184 -0.01725,-0.03911 -0.05557,-0.03911 -0.06842,0 -0.08892,0.03459 -0.04597,0.07754 0.03051,0.03051 0.08551,0.0097 0.101548,-0.03843 z m -1.350993,-0.08028 c -0.0075,-0.02264 -0.03348,-0.04116 -0.05764,-0.04116 -0.02415,0 -0.05009,0.01853 -0.05764,0.04116 -0.0081,0.02449 0.01519,0.04116 0.05764,0.04116 0.04245,0 0.0658,-0.01668 0.05764,-0.04116 z M 23.944427,9.8355883 c 0,-0.02415 -0.01853,-0.05009 -0.04117,-0.05764 -0.02448,-0.0082 -0.04117,0.01519 -0.04117,0.05764 0,0.04245 0.01669,0.0658 0.04117,0.05764 0.02265,-0.0075 0.04117,-0.03349 0.04117,-0.05764 z m -0.247008,-0.06392 c 0,-0.01705 -0.01553,-0.04059 -0.03451,-0.05232 -0.04834,-0.02988 -0.138691,0.0099 -0.113838,0.05015 0.02591,0.04192 0.148349,0.04371 0.148349,0.0022 z m -0.348692,-0.0548 c 0.07239,-0.02778 0.03155,-0.07889 -0.06299,-0.07889 -0.08099,0 -0.129418,0.04074 -0.09241,0.07774 0.02649,0.02649 0.08819,0.02693 0.155403,0.0012 z m 0.760372,-0.07889 c 0,-0.02415 -0.01853,-0.05009 -0.04117,-0.05764 -0.02448,-0.0082 -0.04117,0.01519 -0.04117,0.05764 0,0.04245 0.01669,0.0658 0.04117,0.05764 0.02265,-0.0075 0.04117,-0.03349 0.04117,-0.05764 z m -1.037428,-0.02941 c 0,-0.04347 -0.08268,-0.06744 -0.161499,-0.04683 -0.109256,0.02857 -0.08036,0.07624 0.04623,0.07624 0.0634,0 0.115271,-0.01323 0.115271,-0.02941 z m -0.568489,-0.05712 c 0.110881,-0.02971 0.05498,-0.07814 -0.0902,-0.07814 -0.134852,0 -0.205972,0.05032 -0.10744,0.07602 0.08894,0.0232 0.117827,0.02351 0.197639,0.0021 z m -1.316356,-0.331346 c -0.0171,-0.266635 -0.07182,-0.378955 -0.110164,-0.226177 -0.02407,0.096 -1.17e-4,0.421859 0.03522,0.479073 0.01168,0.01887 0.03684,0.02467 0.05591,0.01287 0.02166,-0.01339 0.02882,-0.113312 0.01902,-0.265765 z m 0.360292,0.232562 c 0.01607,-0.04829 -0.06658,-0.07958 -0.121138,-0.04586 -0.02331,0.01441 -0.03169,0.0435 -0.01862,0.06465 0.02846,0.04606 0.122396,0.03344 0.13978,-0.01878 z m 2.473701,-0.05346 c -0.0058,-0.04076 -0.02534,-0.0741 -0.04346,-0.0741 -0.01813,0 -0.03768,0.03334 -0.04346,0.0741 -0.0073,0.05099 0.0063,0.0741 0.04346,0.0741 0.03715,0 0.0507,-0.02311 0.04346,-0.0741 z m -0.05993,-0.20584 c 0,-0.02717 -0.02224,-0.0494 -0.0494,-0.0494 -0.02717,0 -0.0494,0.02223 -0.0494,0.0494 0,0.02717 0.02224,0.0494 0.0494,0.0494 0.02716,0 0.0494,-0.02223 0.0494,-0.0494 z m -0.0988,-0.21473 c 0,-0.154201 -0.50281,-1.020597 -0.982724,-1.6933355 -0.224809,-0.315137 -0.555447,-0.6772741 -0.618363,-0.6772741 -0.07245,0 -0.05314,0.059431 0.03889,0.1197388 0.194161,0.1272192 0.857844,1.1148478 1.297232,1.9304188 0.204732,0.380016 0.26495,0.452848 0.26495,0.320452 z m -2.452317,-0.789765 c 0.215147,-0.6979444 0.377197,-1.0931567 0.5518,-1.3457669 0.135738,-0.1963774 0.149522,-0.2451948 0.06463,-0.2288463 -0.132319,0.025479 -0.442633,0.6496076 -0.702199,1.4123112 -0.133491,0.392263 -0.216382,0.881597 -0.136279,0.804521 0.01884,-0.01811 0.118748,-0.307112 0.222048,-0.642219 z"
       id="path9" />
    <path
       style="fill:#b96719;fill-opacity:0.551839;stroke:none;stroke-width:0.0829008"
       d="m 14.079476,20.036976 c -0.03632,-0.05887 -0.13614,-0.243889 -0.221822,-0.411155 -0.125877,-0.245729 -0.148797,-0.315283 -0.119385,-0.362277 0.100509,-0.160579 1.208775,-0.776933 1.562855,-0.869168 0.205625,-0.05356 0.327398,-0.02001 0.327398,0.09023 0,0.09806 -0.07108,0.208226 -0.326961,0.506705 -0.24946,0.290992 -1.09246,1.152699 -1.127674,1.152699 -0.01561,0 -0.05809,-0.04817 -0.09441,-0.107035 z"
       id="path10" />
    <path
       style="fill:#b96719;fill-opacity:0.551839;stroke:none;stroke-width:0.0829008"
       d="m 15.429711,21.554148 c -0.238285,-0.15912 -0.459874,-0.361005 -0.459874,-0.41898 0,-0.09965 0.738524,-0.788298 1.099105,-1.024879 0.110988,-0.07282 0.259171,-0.14978 0.329292,-0.171018 0.113286,-0.03432 0.13258,-0.03166 0.173153,0.02383 0.02984,0.0408 0.0386,0.102941 0.02529,0.179314 -0.03185,0.182742 -0.285778,0.697328 -0.525932,1.06578 -0.240098,0.368366 -0.334258,0.48373 -0.394813,0.48373 -0.02194,0 -0.132752,-0.062 -0.246226,-0.137774 z"
       id="path11" />
    <path
       style="fill:#b96719;fill-opacity:0.551839;stroke:none;stroke-width:0.0829008"
       d="m 16.84709,13.64427 c -0.249822,-0.09045 -0.584678,-0.351559 -1.212987,-0.945855 l -0.36745,-0.347556 0.357151,-0.351945 c 0.196433,-0.19357 0.372299,-0.351945 0.390814,-0.351945 0.115648,0 0.557483,0.633928 0.885771,1.270869 0.249235,0.483567 0.284668,0.624821 0.178335,0.710925 -0.08647,0.07002 -0.08191,0.06971 -0.231634,0.01551 z"
       id="path12" />
    <path
       style="fill:#b96719;fill-opacity:0.551839;stroke:none;stroke-width:0.0829008"
       d="m 18.699147,13.558975 c -0.173599,-0.125754 -0.528376,-0.533185 -1.052674,-1.208904 -0.439191,-0.566033 -0.897229,-1.220492 -0.897833,-1.282853 -7.1e-4,-0.07384 0.998865,-0.671751 1.123027,-0.671751 0.145548,0 0.737674,1.287672 1.082838,2.3548 0.168983,0.522437 0.199754,0.746889 0.115203,0.840317 -0.0836,0.09238 -0.214862,0.08118 -0.370561,-0.03161 z"
       id="path13" />
    <path
       style="fill:#b96719;fill-opacity:0.551839;stroke:none;stroke-width:0.0829008"
       d="m 19.805236,11.974958 c -0.10804,-0.06303 -0.365615,-0.501563 -0.706845,-1.203439 -0.190221,-0.391266 -0.339231,-0.72857 -0.33113,-0.749562 0.01766,-0.04576 0.706636,-0.2851757 0.820652,-0.2851757 0.04402,0 0.111737,0.03373 0.150473,0.07497 0.122104,0.129974 0.357086,1.1483187 0.389279,1.6870147 0.01562,0.261025 0.0096,0.309185 -0.0501,0.403444 -0.0702,0.110802 -0.1641,0.135886 -0.272326,0.07275 z"
       id="path14" />
    <path
       style="fill:#b96719;fill-opacity:0.551839;stroke:none;stroke-width:0.0829008"
       d="m 20.922278,25.606069 c -0.13158,-0.17525 -0.30313,-0.455364 -0.415774,-0.678887 l -0.103997,-0.206373 0.09131,-0.03487 c 0.305087,-0.116522 1.11993,-0.26561 1.282181,-0.234594 0.11626,0.02222 0.153846,0.114888 0.09941,0.245081 -0.05824,0.139294 -0.386921,0.544442 -0.657811,0.810844 l -0.212559,0.20904 z"
       id="path15" />
    <path
       style="fill:#b96719;fill-opacity:0.551839;stroke:none;stroke-width:0.0829008"
       d="m 22.708326,27.663595 c -0.04471,-0.03029 -0.222066,-0.181558 -0.394145,-0.336148 -0.172084,-0.15459 -0.320156,-0.286473 -0.329053,-0.293076 -0.03021,-0.02242 0.743522,-0.757362 0.90545,-0.860054 0.496854,-0.315096 0.540217,0.124605 0.112112,1.136877 -0.171376,0.405229 -0.187654,0.424716 -0.294364,0.352401 z"
       id="path16" />
    <path
       style="fill:#b96719;fill-opacity:0.551839;stroke:none;stroke-width:0.0829008"
       d="m 24.751317,12.957267 c -0.269775,-0.14369 0.05824,-0.493672 0.8394,-0.89563 0.31027,-0.159655 0.425201,-0.184523 0.45798,-0.0991 0.01097,0.02865 0.02001,0.204855 0.02001,0.391562 0,0.274949 -0.01097,0.352637 -0.05763,0.408761 -0.124213,0.149341 -1.070247,0.295335 -1.259736,0.194405 z"
       id="path17" />
    <path
       style="fill:#b96719;fill-opacity:0.551839;stroke:none;stroke-width:0.0829008"
       d="m 25.818351,14.690826 c -0.213921,-0.112563 -0.255243,-0.156127 -0.228376,-0.240769 0.0264,-0.08313 0.373337,-0.373589 0.425612,-0.356308 0.03983,0.01316 0.06883,0.483058 0.03755,0.607764 -0.02345,0.09351 -0.03799,0.09285 -0.234772,-0.01068 z"
       id="path18" />
    <path
       style="fill:#895012;fill-opacity:0.692308;stroke:none;stroke-width:0.0829008"
       d="m 25.130062,30.038091 c -2.057841,-1.086634 -3.314748,-2.0858 -4.347522,-3.456022 -0.616874,-0.818433 -1.053729,-1.640655 -1.498729,-2.820816 -0.111551,-0.295838 -0.212667,-0.548065 -0.224706,-0.560506 -0.01203,-0.01244 -0.290716,-0.04595 -0.619289,-0.07447 -0.941123,-0.08169 -1.511984,-0.197257 -2.148138,-0.434866 -0.740747,-0.276677 -1.271465,-0.616385 -1.816415,-1.162673 -0.852345,-0.85444 -1.383521,-1.944534 -1.693544,-3.475552 -0.04763,-0.235202 -0.120661,-0.50197 -0.162297,-0.592817 -0.04164,-0.09085 -0.265454,-0.416866 -0.497375,-0.724488 -1.103914,-1.464252 -1.685415,-2.545247 -1.944556,-3.614875 -0.1803514,-0.744423 -0.07258,-1.114265 0.391221,-1.342594 0.516891,-0.254465 1.173316,-0.261495 2.914041,-0.0312 0.807662,0.10685 1.169055,0.121044 1.333404,0.05238 0.05922,-0.02474 0.262527,-0.189809 0.451788,-0.36681 0.618176,-0.578131 1.287884,-1.052196 2.043878,-1.4467947 0.658549,-0.343738 1.088164,-0.511954 2.059187,-0.806275 l 0.333789,-0.101172 0.156882,-0.453065 c 0.618251,-1.7854577 1.008691,-2.5924219 1.457388,-3.0121262 0.253296,-0.2369288 0.406887,-0.3038613 0.700198,-0.3051382 0.221189,-9.302e-4 0.27549,0.012262 0.494017,0.1203011 0.793019,0.3920775 1.946382,2.0360344 2.502697,3.5672563 0.184284,0.507219 0.457124,1.1381217 0.646049,1.4938647 0.09965,0.187639 0.166502,0.335844 0.148565,0.329342 -0.01794,-0.0065 -0.203869,-0.163726 -0.41318,-0.349387 -0.259262,-0.229966 -0.374524,-0.353316 -0.361603,-0.386979 0.01043,-0.02718 0.0027,-0.04941 -0.01701,-0.04941 -0.05429,0 -0.217488,-0.3450227 -0.385445,-0.8149187 -0.195844,-0.547909 -0.670449,-1.510904 -0.969928,-1.9680269 -0.634507,-0.9685042 -1.230297,-1.531444 -1.620811,-1.531444 -0.162484,0 -0.271584,0.058535 -0.440078,0.2361322 -0.363639,0.3832712 -0.704857,1.0894557 -1.21468,2.5138797 -0.228874,0.639456 -0.360821,0.926546 -0.447055,0.972697 -0.03572,0.01912 -0.310494,0.108433 -0.610594,0.198472 -0.747739,0.224346 -1.106266,0.3623157 -1.626815,0.6260367 -0.823011,0.416955 -1.419795,0.860704 -2.240816,1.6662 l -0.511786,0.502089 -0.54213,-0.09799 c -2.243931,-0.405603 -3.442634,-0.422511 -3.782019,-0.05335 -0.240353,0.261438 -0.09284,0.963065 0.423682,2.015208 0.438645,0.893508 0.898629,1.601427 1.530076,2.3548 0.466321,0.556363 0.496683,0.618203 0.613716,1.250048 0.271097,1.463583 0.726445,2.381828 1.625923,3.278813 0.617496,0.615781 1.213008,0.988408 1.994115,1.247766 0.586062,0.194595 0.933974,0.253453 1.617343,0.273614 0.71979,0.02123 1.003843,-0.0069 1.906815,-0.188787 0.847246,-0.170671 0.954904,-0.170753 0.954904,-7.16e-4 0,0.179146 -0.11579,0.229038 -0.955096,0.41153 -0.600588,0.130588 -0.675111,0.156356 -0.725724,0.250926 -0.07228,0.135053 -7.16e-4,0.350495 0.347377,1.044984 0.741069,1.478768 1.412306,2.430107 2.377822,3.370078 0.741351,0.72174 1.513237,1.288949 2.541872,1.867858 0.43425,0.244396 0.529027,0.312538 0.661333,0.475506 0.168539,0.207593 0.317327,0.452184 0.274751,0.451659 -0.01472,-2.37e-4 -0.323217,-0.156849 -0.685491,-0.348147 z"
       id="path19" />
    <path
       style="fill:#ddbf51;fill-opacity:1;stroke:none;stroke-width:0.11724"
       d="m 25.419677,29.490067 c -0.892212,-0.496579 -1.664403,-1.001986 -2.133862,-1.396632 -0.283819,-0.238589 -0.281487,-0.183658 -0.03692,-0.870169 0.208018,-0.583965 0.252263,-0.916833 0.153336,-1.153592 -0.06475,-0.154963 -0.09078,-0.173827 -0.239878,-0.173827 -0.222371,0 -0.465369,0.129794 -0.797806,0.426139 -0.150681,0.134322 -0.321122,0.285676 -0.378762,0.336344 l -0.104795,0.09212 -0.121044,-0.112915 c -0.148654,-0.13867 -0.577596,-0.672411 -0.577596,-0.718711 0,-0.01852 0.14886,-0.204181 0.330807,-0.41258 0.365582,-0.418742 0.599607,-0.788898 0.600274,-0.949465 2.37e-4,-0.05764 -0.04149,-0.146715 -0.09271,-0.197948 -0.122549,-0.122549 -0.490119,-0.122549 -1.024674,0 -0.519588,0.119117 -0.625623,0.117376 -0.709386,-0.01164 -0.08253,-0.127111 -0.455017,-0.950694 -0.455017,-1.006039 0,-0.0217 0.183394,-0.08724 0.407541,-0.145632 0.715638,-0.186439 1.132877,-0.330526 1.225588,-0.423233 0.107148,-0.107153 0.116626,-0.323147 0.0222,-0.50577 -0.08788,-0.169954 -0.16579,-0.186127 -0.560776,-0.116419 -0.179321,0.03164 -0.636468,0.111894 -1.015889,0.178328 -0.393286,0.06886 -0.866838,0.12079 -1.101552,0.12079 -0.450209,0 -1.315769,-0.132642 -1.864816,-0.285773 -0.397195,-0.110778 -0.931522,-0.315832 -0.931522,-0.357481 0,-0.01532 0.168413,-0.36416 0.374252,-0.775196 0.404869,-0.808478 0.489449,-1.111251 0.349517,-1.251183 -0.0972,-0.0972 -0.357829,-0.101387 -0.537188,-0.0086 -0.169496,0.08765 -0.620497,0.461779 -1.061623,0.880673 -0.19565,0.185788 -0.355944,0.304306 -0.378434,0.279804 -0.198396,-0.216142 -0.365382,-0.494864 -0.344446,-0.574924 0.01339,-0.05123 0.236933,-0.327107 0.496751,-0.613067 1.020202,-1.122854 1.046353,-1.163815 0.882846,-1.382816 -0.128057,-0.171519 -0.311889,-0.208457 -0.631622,-0.126918 -0.318152,0.08114 -0.488756,0.164962 -1.039461,0.510727 l -0.414151,0.260028 -0.05245,-0.152307 c -0.02889,-0.08377 -0.109223,-0.466694 -0.178565,-0.850946 -0.06934,-0.384253 -0.134927,-0.74291 -0.145746,-0.797014 -0.01082,-0.0541 -0.162038,-0.263699 -0.336046,-0.465762 -0.785919,-0.912654 -1.167298,-1.45804 -1.608573,-2.300329 -0.360721,-0.688535 -0.581137,-1.271932 -0.618426,-1.636852 -0.03013,-0.29491 -0.02615,-0.31301 0.08472,-0.38566 0.160739,-0.10532 0.859009,-0.178417 1.362658,-0.142645 0.230551,0.01637 0.852648,0.09105 1.382439,0.165942 0.529789,0.0749 1.05639,0.136172 1.170223,0.136172 0.404292,0 0.476258,0.03892 1.088489,0.588676 0.631824,0.56735 0.976831,0.778251 1.232909,0.75367 0.118141,-0.01135 0.170963,-0.04732 0.219819,-0.14974 0.05579,-0.116963 0.05388,-0.172459 -0.01453,-0.419185 -0.103451,-0.373141 -0.381655,-0.889791 -0.770353,-1.430613 l -0.314325,-0.437347 0.190632,-0.126864 c 0.104848,-0.06977 0.204255,-0.111693 0.220904,-0.09315 0.01665,0.01854 0.161165,0.243305 0.321149,0.499473 0.755946,1.210441 1.533824,2.02606 1.932307,2.02606 0.239672,0 0.323157,-0.132895 0.315969,-0.502975 -0.0079,-0.408701 -0.166937,-0.940327 -0.596864,-1.99566 -0.19094,-0.468696 -0.347164,-0.893955 -0.347164,-0.945022 0,-0.09521 0.124823,-0.189278 0.25117,-0.189278 0.04508,0 0.189582,0.242241 0.395916,0.663709 0.358258,0.731793 0.671409,1.18962 0.917887,1.341952 0.504551,0.311828 0.634386,-0.302224 0.350182,-1.656149 l -0.136835,-0.6518727 0.155699,-0.25636 c 0.08563,-0.140998 0.253359,-0.538225 0.372712,-0.882725 0.599374,-1.7299681 1.150981,-2.7504025 1.486761,-2.7504025 0.148627,0 0.505741,0.2512225 0.751591,0.5287289 0.564536,0.6372318 1.273072,1.8917466 1.648,2.9179016 0.107636,0.294594 0.236418,0.6018947 0.286186,0.6828907 0.04977,0.08099 0.362387,0.403007 0.694711,0.715578 0.332326,0.312571 0.604226,0.593447 0.604226,0.624169 0,0.08734 -0.222872,0.269983 -0.628778,0.515284 -0.655779,0.396308 -0.954198,0.689507 -0.954631,0.937939 -4.48e-4,0.287089 0.369628,0.331412 1.462449,0.17512 l 0.228359,-0.03266 -0.03249,0.203277 c -0.0519,0.32462 -0.191718,0.586042 -0.468751,0.876483 -0.153479,0.160905 -0.258202,0.312393 -0.258202,0.373504 0,0.132497 0.184664,0.302204 0.445591,0.409499 l 0.206123,0.08476 1.21e-4,1.962137 c 1.17e-4,1.77684 -0.0072,1.968173 -0.07765,2.02606 -0.163002,0.133896 -0.341365,0.47676 -0.341365,0.656202 0,0.158198 0.02345,0.194688 0.209593,0.32588 l 0.209593,0.147735 -4.48e-4,4.660287 c -4.47e-4,4.358816 -0.01195,5.009609 -0.08816,5.009609 -0.01647,0 -0.2495,-0.122218 -0.517887,-0.271597 z m 0.456157,-2.327934 c 0.01011,-0.03042 -0.01477,-0.0553 -0.0553,-0.0553 -0.04055,0 -0.07375,0.03318 -0.07375,0.07375 0,0.08225 0.100269,0.06793 0.129056,-0.01844 z m -0.175632,-0.08006 c 0,-0.07508 -0.123963,-0.146267 -0.171663,-0.09857 -0.03317,0.03317 0.07208,0.169896 0.130793,0.169896 0.02247,0 0.04086,-0.0321 0.04086,-0.07133 z m -0.232879,-0.138262 c 0,-0.03843 -0.02095,-0.06987 -0.04658,-0.06987 -0.0256,0 -0.04658,0.03144 -0.04658,0.06987 0,0.03843 0.02095,0.06987 0.04658,0.06987 0.0256,0 0.04658,-0.03144 0.04658,-0.06987 z m -0.13973,-0.09461 c 0,-0.07437 -0.123779,-0.146452 -0.170776,-0.09945 -0.01486,0.01487 -0.01464,0.05937 4.47e-4,0.09891 0.03571,0.09308 0.17023,0.09352 0.17023,5.81e-4 z m -0.232879,-0.155852 c 0,-0.05871 -0.136722,-0.163962 -0.169895,-0.130789 -0.04769,0.04769 0.0235,0.171662 0.09857,0.171662 0.0392,0 0.07133,-0.01839 0.07133,-0.04088 z m -0.287221,-0.144345 c -0.0311,-0.09107 -2.195565,-2.14359 -2.260514,-2.14359 -0.114058,0 0.06782,0.208631 0.854608,0.980314 0.885982,0.868976 1.470546,1.352657 1.405906,1.163276 z m -2.461948,-2.481268 c -0.0018,-0.07866 -0.338944,-0.559727 -0.408851,-0.58303 -0.107582,-0.03586 -0.05393,0.116264 0.133138,0.3775 0.182708,0.255148 0.278157,0.326302 0.275713,0.20553 z m -0.473348,-0.721394 c -0.0085,-0.04454 -0.05377,-0.08833 -0.10043,-0.09731 -0.07266,-0.01399 -0.07736,-0.0024 -0.03276,0.08097 0.06305,0.117804 0.154898,0.129071 0.133187,0.01634 z m -0.130962,-0.221771 c 0,-0.03843 -0.03147,-0.06987 -0.06987,-0.06987 -0.07273,0 -0.09241,0.05509 -0.03881,0.108678 0.0536,0.0536 0.108678,0.03392 0.108678,-0.03881 z m -0.558911,-3.522842 c 0.245029,-0.107322 0.409666,-0.25332 0.652145,-0.578308 l 0.175583,-0.235336 0.398196,-0.05327 c 0.454094,-0.06076 0.696935,-0.168979 0.99436,-0.443136 0.272254,-0.250954 0.43135,-0.529136 0.46497,-0.812998 0.04368,-0.368821 -0.132426,-0.619772 -0.441098,-0.628548 -0.266526,-0.0076 -0.321274,0.04274 -0.42768,0.393065 -0.186709,0.614692 -0.549548,0.807409 -0.959478,0.509607 -0.310457,-0.225539 -0.311894,-0.230481 -0.179683,-0.617653 0.153134,-0.448432 0.141757,-0.717114 -0.03598,-0.849323 -0.116076,-0.08635 -0.151684,-0.09003 -0.408976,-0.04218 -0.504825,0.09388 -1.206173,0.489858 -1.407016,0.794391 -0.220598,0.334487 -0.02573,0.59108 0.569146,0.749469 0.536256,0.142778 0.605492,0.191907 0.605492,0.429666 0,0.340484 -0.243544,0.64569 -0.515234,0.64569 -0.05042,0 -0.214901,-0.03426 -0.365524,-0.07614 -0.150677,-0.04189 -0.32806,-0.06254 -0.394346,-0.0459 -0.160848,0.04037 -0.27902,0.272401 -0.241255,0.473698 0.04648,0.247784 0.158319,0.33909 0.538259,0.439447 0.395527,0.104476 0.651531,0.0908 0.9781,-0.05223 z M 18.221148,18.19207 c 0.627919,-0.367984 0.486693,-1.380571 -0.256108,-1.83631 -0.228255,-0.140043 -0.278459,-0.152832 -0.520187,-0.132525 -0.343051,0.02882 -0.536756,0.144165 -0.672181,0.400255 -0.265851,0.502734 -0.04013,1.209456 0.494733,1.549003 0.278411,0.176742 0.671784,0.184817 0.953743,0.01958 z m -5.038282,-2.251864 c 0.09768,-0.109597 0.282682,-0.482126 0.722809,-1.455504 0.432134,-0.955698 0.45752,-1.037036 0.355498,-1.139059 -0.109048,-0.109047 -0.724047,-0.316689 -0.859361,-0.300747 -0.102132,0.01203 0.248717,0.133461 0.494255,0.2723 l 0.282362,0.159659 -0.31861,0.701873 c -0.175236,0.386029 -0.396615,0.874096 -0.491954,1.084592 -0.267722,0.591099 -0.252661,0.58102 -0.50354,0.33693 -0.428833,-0.417229 -1.140543,-1.605017 -1.421935,-2.373101 l -0.110913,-0.302744 -0.01395,0.190369 c -0.01663,0.226896 0.09319,0.525715 0.41656,1.133424 0.321793,0.604754 0.698427,1.166004 1.003823,1.495867 0.275863,0.297965 0.332107,0.322757 0.444958,0.196141 z m 10.344125,-0.804891 c 0.25933,-0.177697 0.333475,-0.343128 0.333341,-0.743764 -9.4e-5,-0.27734 -0.02331,-0.39474 -0.112648,-0.569744 -0.233685,-0.45775 -0.574934,-0.687811 -1.020211,-0.687811 -0.208645,0 -0.304971,0.02355 -0.399055,0.09756 -0.552999,0.434987 -0.329546,1.634632 0.365027,1.959705 0.253296,0.118547 0.61425,0.09432 0.833546,-0.05594 z M 13.543842,13.08742 c 0,-0.02561 -0.05239,-0.04658 -0.11644,-0.04658 -0.06404,0 -0.116439,0.02096 -0.116439,0.04658 0,0.02561 0.0524,0.04658 0.116439,0.04658 0.06404,0 0.11644,-0.02096 0.11644,-0.04658 z M 13.16056,13.03211 c -0.02879,-0.08636 -0.129054,-0.100685 -0.129054,-0.01843 0,0.04057 0.03318,0.07375 0.07375,0.07375 0.04056,0 0.06545,-0.02489 0.0553,-0.05531 z m -0.408511,-0.08442 c 0,-0.02561 -0.03144,-0.04658 -0.06987,-0.04658 -0.03843,0 -0.06987,0.02096 -0.06987,0.04658 0,0.02561 0.03143,0.04658 0.06987,0.04658 0.03843,0 0.06987,-0.02096 0.06987,-0.04658 z m -1.350707,-0.09315 c 0,-0.02561 -0.03144,-0.04658 -0.06987,-0.04658 -0.03843,0 -0.06987,0.02095 -0.06987,0.04658 0,0.02562 0.03144,0.04658 0.06987,0.04658 0.03843,0 0.06987,-0.02096 0.06987,-0.04658 z M 23.966213,9.8358243 c 0.01011,-0.03042 -0.01472,-0.05531 -0.0553,-0.05531 -0.04055,0 -0.07375,0.03318 -0.07375,0.07375 0,0.08225 0.100269,0.06793 0.129056,-0.01844 z m -0.268781,-0.0786 c 0,-0.03843 -0.03021,-0.06987 -0.06712,-0.06987 -0.07781,0 -0.13034,0.06648 -0.08687,0.109943 0.05567,0.05567 0.153989,0.03007 0.153989,-0.04008 z m -0.27946,-0.06987 c 0,-0.02562 -0.0524,-0.04658 -0.116439,-0.04658 -0.06404,0 -0.11644,0.02096 -0.11644,0.04658 0,0.02561 0.0524,0.04658 0.11644,0.04658 0.06405,0 0.116439,-0.02096 0.116439,-0.04658 z m 0.698646,-0.07261 c 0,-0.03691 -0.02095,-0.06712 -0.04658,-0.06712 -0.0256,0 -0.04658,0.04315 -0.04658,0.0959 0,0.05274 0.02095,0.08295 0.04658,0.06712 0.0256,-0.01583 0.04658,-0.05899 0.04658,-0.0959 z m -1.024678,-0.02054 c 0,-0.02561 -0.05116,-0.04658 -0.113691,-0.04658 -0.06253,0 -0.126644,0.02096 -0.142474,0.04658 -0.01679,0.02717 0.03057,0.04658 0.113692,0.04658 0.07836,0 0.142473,-0.02095 0.142473,-0.04658 z m -0.586279,-0.02817 c 0.04037,-0.01549 0.06181,-0.04693 0.04763,-0.06987 -0.03254,-0.05263 -0.299725,-0.05519 -0.299725,-0.0029 0,0.09454 0.111472,0.126706 0.252088,0.07275 z m -1.311889,-0.326181 c -0.01427,-0.274806 -0.04184,-0.35978 -0.104274,-0.321207 -0.05179,0.03201 -0.06177,0.312603 -0.01706,0.479513 0.05092,0.190093 0.13381,0.08194 0.121327,-0.158306 z m 0.361157,0.187919 c 0,-0.04337 -0.03169,-0.06714 -0.07765,-0.05822 -0.116852,0.02266 -0.132896,0.1315 -0.01938,0.1315 0.05721,0 0.09703,-0.03007 0.09703,-0.07328 z m 2.468535,-0.01987 c 0,-0.05124 -0.02095,-0.09315 -0.04658,-0.09315 -0.0256,0 -0.04658,0.04192 -0.04658,0.09315 0,0.05124 0.02095,0.09315 0.04658,0.09315 0.0256,0 0.04658,-0.04192 0.04658,-0.09315 z m -0.04658,-0.209593 c 0,-0.03843 -0.03147,-0.06987 -0.06987,-0.06987 -0.03844,0 -0.06987,0.03144 -0.06987,0.06987 0,0.03843 0.03147,0.06987 0.06987,0.06987 0.0384,0 0.06987,-0.03144 0.06987,-0.06987 z m -0.111497,-0.266378 c -0.08944,-0.447191 -1.375066,-2.3185846 -1.592845,-2.3185846 -0.09785,0 -0.08211,0.03424 0.102777,0.223545 0.203912,0.2087956 0.753796,1.0347216 1.09154,1.6394986 0.339961,0.608746 0.455608,0.740936 0.398528,0.455541 z m -2.425272,-0.769929 c 0.123041,-0.377849 0.323807,-0.8808712 0.446141,-1.117827 0.148735,-0.2880836 0.201255,-0.4308286 0.158523,-0.4308286 -0.151993,0 -0.4421,0.5487501 -0.704195,1.3320016 -0.08724,0.260713 -0.171864,0.57069 -0.188061,0.688838 -0.05662,0.413133 0.06354,0.215834 0.287592,-0.472184 z"
       id="path21"
       sodipodi:nodetypes="csssssscsssssssssssssssssssssssssscssssssssssssssscssssssssssscssssssssscscssssccsssccsccssssssssssssscscccsssssssssssssssssssssscssssssssssssssssssssssssssssscsssscssssssssssssssssssssssssssssssssssssssssssssssssssssssssssssssssssssssssssssssssssssss" />
    <path
       style="fill:#e87f37;fill-opacity:1;stroke:none;stroke-width:0.11724"
       d="m 17.479626,18.044262 c -0.196487,-0.102451 -0.295726,-0.200626 -0.423927,-0.419386 -0.227094,-0.387509 -0.19049,-0.837413 0.08714,-1.071023 0.125595,-0.105681 0.178016,-0.119912 0.372775,-0.101197 0.469326,0.0451 0.825728,0.460493 0.825392,0.962023 -2.37e-4,0.316765 -0.108015,0.51555 -0.339043,0.625179 -0.20397,0.09679 -0.342905,0.09796 -0.522337,0.0044 z"
       id="path22" />
    <path
       style="fill:#e87f37;fill-opacity:1;stroke:none;stroke-width:0.11724"
       d="m 22.687833,14.879565 c -0.450286,-0.2699 -0.613441,-0.966562 -0.310646,-1.326415 0.299573,-0.356025 0.910512,-0.149116 1.163428,0.394025 0.168132,0.361059 0.13623,0.706462 -0.08729,0.945069 -0.141444,0.150991 -0.502412,0.145013 -0.765496,-0.01268 z"
       id="path23" />
    <path
       style="fill:#e87f37;fill-opacity:1;stroke:none;stroke-width:0.11724"
       d="m 20.693272,17.609624 c -0.07685,-0.01909 -0.192125,-0.06202 -0.256166,-0.09537 -0.483382,-0.251773 -0.348328,-0.531648 0.438784,-0.909303 0.520901,-0.249927 0.687018,-0.289146 0.789717,-0.186447 0.141042,0.141038 0.05358,0.691575 -0.148403,0.934155 -0.186043,0.22344 -0.528741,0.33032 -0.823932,0.256965 z"
       id="path24" />
    <path
       style="fill:#e87f37;fill-opacity:1;stroke:none;stroke-width:0.11724"
       d="m 20.205794,19.410335 c -0.192035,-0.0695 -0.333811,-0.280443 -0.2469,-0.367353 0.04368,-0.04368 0.117415,-0.03746 0.33415,0.02816 0.705059,0.213475 1.082345,-0.0973 1.11515,-0.918566 0.0094,-0.234385 0.03639,-0.407541 0.06362,-0.407541 0.02605,0 0.144469,0.07054 0.263178,0.156766 0.408126,0.296434 0.779455,0.332984 1.116551,0.109903 0.187349,-0.123983 0.304066,-0.316956 0.382455,-0.632336 0.0277,-0.111456 0.06278,-0.190234 0.07796,-0.175064 0.01517,0.01517 0.05798,0.0024 0.09513,-0.02847 0.165845,-0.137637 0.268509,0.342774 0.130345,0.609949 -0.08808,0.170333 -0.391746,0.441513 -0.641337,0.572724 -0.157135,0.08261 -0.286987,0.107133 -0.605366,0.114335 -0.222925,0.0051 -0.427577,0.02292 -0.454779,0.03974 -0.02721,0.01681 -0.09121,0.112403 -0.142237,0.212421 -0.134341,0.263329 -0.358376,0.501803 -0.57547,0.612555 -0.229482,0.117074 -0.68883,0.153715 -0.912445,0.07278 z"
       id="path25" />
    <path
       style="fill:#e87f37;fill-opacity:1;stroke:none;stroke-width:0.11724"
       d="m 16.734305,13.569177 c -0.23927,-0.125736 -1.420571,-1.147995 -1.420571,-1.229316 0,-0.01972 0.159851,-0.178927 0.355224,-0.353784 l 0.355224,-0.317924 0.185596,0.20894 c 0.223012,0.251063 0.664968,0.989397 0.816959,1.364821 0.08646,0.213561 0.09796,0.285068 0.0543,0.337677 -0.07058,0.08504 -0.17081,0.08203 -0.34673,-0.01042 z"
       id="path26" />
    <path
       style="fill:#e87f37;fill-opacity:1;stroke:none;stroke-width:0.11724"
       d="m 18.742775,13.558031 c -0.23874,-0.158593 -1.022388,-1.109472 -1.631818,-1.98005 l -0.355651,-0.508053 0.211057,-0.150055 c 0.318962,-0.226773 0.859302,-0.498476 0.934182,-0.469742 0.165378,0.06347 1.014424,2.080533 1.145473,2.72129 0.08682,0.424508 -0.02725,0.569946 -0.303243,0.38661 z"
       id="path27" />
    <path
       style="fill:#e87f37;fill-opacity:1;stroke:none;stroke-width:0.11724"
       d="m 19.623519,11.704373 c -0.243635,-0.383151 -0.827324,-1.595791 -0.801059,-1.664235 0.02522,-0.0657 0.584106,-0.2596197 0.748262,-0.2596197 0.06037,0 0.132661,0.02759 0.160651,0.06133 0.08386,0.101051 0.279602,0.8989437 0.340778,1.3891217 0.06749,0.540791 0.03209,0.707791 -0.154674,0.72958 -0.103881,0.01212 -0.147575,-0.02596 -0.293958,-0.256169 z"
       id="path28" />
    <path
       style="fill:#e87f37;fill-opacity:1;stroke:none;stroke-width:0.11724"
       d="m 13.995303,19.830646 c -0.29651,-0.53021 -0.296197,-0.525037 -0.04288,-0.709906 0.337187,-0.246076 1.220892,-0.680937 1.442821,-0.709992 0.175006,-0.02292 0.197949,-0.01522 0.197949,0.06638 0,0.143829 -0.246431,0.452492 -0.861777,1.079412 l -0.566588,0.577244 z"
       id="path29" />
    <path
       style="fill:#e87f37;fill-opacity:1;stroke:none;stroke-width:0.11724"
       d="m 15.30209,21.424076 c -0.172915,-0.127566 -0.314389,-0.251506 -0.314389,-0.275422 0,-0.07868 0.715717,-0.749146 1.024675,-0.959899 0.596844,-0.40713 0.698719,-0.262618 0.331479,0.470208 -0.255099,0.509051 -0.58485,0.998853 -0.67172,0.997756 -0.03061,-3.55e-4 -0.197131,-0.105075 -0.370045,-0.232643 z"
       id="path30" />
    <path
       style="fill:#e87f37;fill-opacity:1;stroke:none;stroke-width:0.11724"
       d="m 24.693766,12.881468 c -0.06225,-0.162236 0.216893,-0.420266 0.777344,-0.718543 0.578186,-0.307716 0.555124,-0.31383 0.555124,0.147148 0,0.285978 -0.01835,0.408563 -0.06724,0.449135 -0.200807,0.166657 -1.210742,0.264246 -1.265232,0.12226 z"
       id="path31" />
    <path
       style="fill:#e87f37;fill-opacity:1;stroke:none;stroke-width:0.11724"
       d="m 25.831308,14.66716 c -0.257687,-0.132763 -0.26146,-0.176262 -0.03361,-0.387788 l 0.205261,-0.190566 0.01445,0.174661 c 0.0079,0.09606 0.0079,0.24609 0,0.333392 l -0.01445,0.158733 z"
       id="path32" />
    <path
       style="fill:#e87f37;fill-opacity:1;stroke:none;stroke-width:0.11724"
       d="m 20.893094,25.520253 c -0.06648,-0.08802 -0.198104,-0.30133 -0.292493,-0.47403 l -0.171618,-0.313997 0.109641,-0.04168 c 0.11081,-0.04213 0.693633,-0.16241 1.043256,-0.215304 0.144425,-0.02185 0.205126,-0.01049 0.253193,0.04744 0.09134,0.11006 -0.03173,0.315698 -0.466398,0.779292 l -0.354706,0.378314 z"
       id="path33" />
    <path
       style="fill:#c15c16;fill-opacity:1;stroke:none;stroke-width:0.11724"
       d="m 22.388873,27.362341 c -0.18969,-0.166868 -0.351055,-0.321582 -0.358582,-0.34381 -0.01933,-0.05714 0.854446,-0.837586 0.999525,-0.892745 0.153264,-0.05827 0.248431,0.01453 0.248431,0.190042 0,0.268159 -0.402438,1.34991 -0.502197,1.34991 -0.02327,0 -0.197483,-0.136528 -0.387177,-0.303397 z"
       id="path34" />
    <path
       style="fill:#7e330e;fill-opacity:1;stroke:none;stroke-width:0.11724"
       d="m 20.501495,17.516167 c -0.351918,-0.159812 -0.399922,-0.357157 -0.140446,-0.577385 0.171883,-0.145886 1.016622,-0.544459 1.153931,-0.544459 0.156236,0 0.203909,0.125403 0.168176,0.442401 -0.06918,0.613777 -0.623895,0.932733 -1.181661,0.679443 z"
       id="path35" />
    <path
       style="fill:#7e330e;fill-opacity:1;stroke:none;stroke-width:0.11724"
       d="m 16.616155,13.454382 c -0.280869,-0.202186 -0.96695,-0.78756 -1.139405,-0.972159 l -0.139728,-0.149568 0.342236,-0.317687 0.342235,-0.317687 0.127445,0.1478 c 0.350134,0.406057 0.884435,1.352713 0.901898,1.597949 0.0141,0.198094 -0.168633,0.202867 -0.434681,0.01136 z"
       id="path36" />
    <path
       style="fill:#7e330e;fill-opacity:1;stroke:none;stroke-width:0.11724"
       d="m 18.557911,13.35295 c -0.136116,-0.139418 -0.375503,-0.410158 -0.531972,-0.601643 -0.333628,-0.408293 -1.22177,-1.621035 -1.22177,-1.668306 0,-0.07393 0.921339,-0.603842 1.049867,-0.603842 0.08847,0 0.249963,0.290426 0.556835,1.001386 0.586943,1.359828 0.756266,2.074548 0.500093,2.110909 -0.07711,0.01094 -0.17227,-0.05333 -0.353053,-0.238504 z"
       id="path37" />
    <path
       style="fill:#7e330e;fill-opacity:1;stroke:none;stroke-width:0.11724"
       d="m 19.674142,11.736736 c -0.159066,-0.240365 -0.820624,-1.573435 -0.820624,-1.653595 0,-0.1161547 0.67353,-0.3231557 0.807509,-0.2481767 0.157254,0.088 0.421297,1.2818517 0.394855,1.7853097 -0.01374,0.261377 -0.02247,0.280361 -0.135017,0.293446 -0.09649,0.01122 -0.145394,-0.02386 -0.246723,-0.176984 z"
       id="path38" />
    <path
       style="fill:#7e330e;fill-opacity:1;stroke:none;stroke-width:0.11724"
       d="m 24.8269,12.916145 c -0.268281,-0.05506 -0.01401,-0.349502 0.610271,-0.706692 0.477524,-0.273219 0.525757,-0.282333 0.564344,-0.106644 0.0358,0.162923 -0.01249,0.562145 -0.07789,0.644376 -0.07464,0.09383 -0.867591,0.215987 -1.096729,0.16896 z"
       id="path39" />
    <path
       style="fill:#7e330e;fill-opacity:1;stroke:none;stroke-width:0.11724"
       d="m 15.321473,21.403275 c -0.157958,-0.116282 -0.287196,-0.236596 -0.287196,-0.267365 0,-0.110537 0.910779,-0.908925 1.212432,-1.062817 0.238944,-0.1219 0.278001,-0.116889 0.278012,0.03568 1.5e-5,0.25293 -0.685316,1.460714 -0.846808,1.49236 -0.03809,0.0074 -0.198483,-0.08157 -0.35644,-0.197852 z"
       id="path41" />
    <path
       style="fill:#7e330e;fill-opacity:1;stroke:none;stroke-width:0.11724"
       d="m 14.00066,19.79112 c -0.259609,-0.468182 -0.260206,-0.481877 -0.02846,-0.652297 0.349075,-0.256704 1.307258,-0.704153 1.471291,-0.687056 l 0.145758,0.0152 -0.07716,0.158516 c -0.04244,0.08718 -0.362508,0.452503 -0.711259,0.811822 l -0.634089,0.653306 z"
       id="path43" />
    <path
       style="fill:#7e330e;fill-opacity:1;stroke:none;stroke-width:0.11724"
       d="m 20.822591,25.367179 c -0.257924,-0.394995 -0.353794,-0.593253 -0.307942,-0.636818 0.05874,-0.05581 1.023067,-0.239995 1.168547,-0.223192 0.266575,0.03079 0.167769,0.23766 -0.413277,0.86526 l -0.260305,0.281164 z"
       id="path44" />
    <path
       style="fill:#7e330e;fill-opacity:1;stroke:none;stroke-width:0.11724"
       d="m 22.395953,27.335569 c -0.180774,-0.155978 -0.328686,-0.30127 -0.328686,-0.322873 0,-0.05964 0.726635,-0.708062 0.912307,-0.814104 0.155009,-0.08853 0.166153,-0.08908 0.224768,-0.01111 0.07665,0.10196 0.03706,0.339017 -0.13793,0.826185 -0.151886,0.422835 -0.242099,0.605489 -0.299045,0.605489 -0.0235,0 -0.190634,-0.127618 -0.371414,-0.283594 z"
       id="path45" />
    <path
       style="fill:#3e1a07;fill-opacity:1;stroke:none;stroke-width:0.11724"
       d="m 25.805,14.624943 c -0.08326,-0.05076 -0.151375,-0.10945 -0.151375,-0.130419 0,-0.02097 0.07336,-0.109224 0.163016,-0.196125 l 0.163021,-0.158002 v 0.288594 c 0,0.158725 -0.0052,0.288515 -0.01164,0.288419 -0.0064,-9.6e-5 -0.07976,-0.04171 -0.163016,-0.09247 z"
       id="path46" />
    <path
       style="fill:#c77317;fill-opacity:1;stroke:none;stroke-width:0.11724"
       d="m 25.116554,29.998637 c -1.567677,-0.822889 -2.700667,-1.637256 -3.586102,-2.577606 -0.948169,-1.006972 -1.587706,-2.048867 -2.165537,-3.527956 -0.135104,-0.345828 -0.26876,-0.651848 -0.297012,-0.680046 -0.02825,-0.02819 -0.396246,-0.08748 -0.817762,-0.131745 -1.991775,-0.209156 -3.278267,-0.85295 -4.230978,-2.117292 -0.539965,-0.716587 -0.89316,-1.549851 -1.196611,-2.823066 l -0.16651,-0.69864 -0.421666,-0.582202 c -1.321077,-1.824032 -1.885488,-2.900563 -2.067279,-3.943029 -0.08497,-0.487262 -0.0446,-0.709989 0.168554,-0.929908 0.08396,-0.08663 0.269017,-0.203913 0.411228,-0.260632 0.368658,-0.147034 1.268375,-0.137375 2.678865,0.02876 0.588275,0.06929 1.147325,0.112848 1.242333,0.0968 0.130311,-0.02202 0.313759,-0.149568 0.746875,-0.519308 1.122853,-0.958551 2.173531,-1.5499517 3.548416,-1.9973197 l 0.751806,-0.244627 0.329725,-0.90106 c 0.544684,-1.4884839 0.815519,-2.0351089 1.227311,-2.4770702 0.270357,-0.2901621 0.4328,-0.3712564 0.74848,-0.3736538 0.563239,-0.00431 1.205538,0.5482715 1.958386,1.6847391 0.410163,0.6191565 0.715049,1.2189639 1.041805,2.0495599 0.144278,0.366745 0.356287,0.867883 0.471129,1.1136397 0.114842,0.245757 0.199214,0.456419 0.187497,0.468139 -0.03858,0.03859 -0.592137,-0.521322 -0.703506,-0.7115757 -0.05998,-0.102467 -0.184708,-0.385417 -0.277173,-0.628778 C 24.42827,8.6026643 23.817564,7.4169717 23.478786,6.9460425 22.879036,6.1123352 22.410745,5.7128762 22.033124,5.7128762 c -0.202732,0 -0.23074,0.01616 -0.465937,0.2688463 -0.312669,0.3359115 -0.709861,1.1419498 -1.151129,2.3360228 -0.171287,0.463507 -0.346736,0.901102 -0.38988,0.972434 -0.06768,0.11189 -0.190312,0.165987 -0.893367,0.394095 -1.613665,0.5235547 -2.504933,1.0710667 -3.780502,2.3223837 l -0.4039,0.396221 -0.900231,-0.145783 c -1.219801,-0.197533 -1.637373,-0.240445 -2.320803,-0.238501 -0.953767,0.0027 -1.22377,0.152422 -1.217528,0.675079 0.0046,0.388431 0.20271,0.962661 0.60975,1.767745 0.416841,0.82447 0.722851,1.297766 1.361628,2.105981 0.258832,0.327488 0.498865,0.662531 0.533408,0.744538 0.03454,0.08201 0.11682,0.406876 0.182839,0.721929 0.214019,1.021339 0.556232,1.863962 1.000704,2.464003 0.510602,0.689319 1.416562,1.452337 2.06181,1.7365 1.209662,0.532724 2.378781,0.620788 4.072063,0.306725 0.872062,-0.161747 0.996861,-0.158578 0.926977,0.02353 -0.04059,0.105803 -0.262275,0.188322 -0.87363,0.325214 -0.872547,0.195377 -0.911518,0.2316 -0.740609,0.688395 0.135981,0.363443 0.6499,1.352016 1.000856,1.925248 0.912955,1.491161 2.283903,2.830705 3.82804,3.740345 0.831017,0.489545 0.979779,0.597346 1.134341,0.821991 0.08126,0.118098 0.139824,0.222636 0.130157,0.232305 -0.0097,0.0097 -0.2894,-0.125102 -0.621627,-0.299488 z"
       id="path47" />
  </g>
</svg>
