<?xml version="1.0" encoding="UTF-8" standalone="no"?>
<!-- Created with Inkscape (http://www.inkscape.org/) -->

<svg
   width="440"
   height="280"
   viewBox="0 0 116.41666 74.083333"
   version="1.1"
   id="svg1"
   xml:space="preserve"
   inkscape:version="1.4.3 (0d15f75, 2025-12-25)"
   sodipodi:docname="tabbysitter-logo.svg"
   inkscape:export-filename="tabbysitter-logo.png"
   inkscape:export-xdpi="96"
   inkscape:export-ydpi="96"
   xmlns:inkscape="http://www.inkscape.org/namespaces/inkscape"
   xmlns:sodipodi="http://sodipodi.sourceforge.net/DTD/sodipodi-0.dtd"
   xmlns="http://www.w3.org/2000/svg"
   xmlns:svg="http://www.w3.org/2000/svg"><sodipodi:namedview
     id="namedview1"
     pagecolor="#ffffff"
     bordercolor="#000000"
     borderopacity="0.25"
     inkscape:showpageshadow="2"
     inkscape:pageopacity="0.0"
     inkscape:pagecheckerboard="0"
     inkscape:deskcolor="#d1d1d1"
     inkscape:document-units="px"
     inkscape:zoom="1.7977413"
     inkscape:cx="-143.51342"
     inkscape:cy="109.0257"
     inkscape:window-width="3440"
     inkscape:window-height="1317"
     inkscape:window-x="0"
     inkscape:window-y="30"
     inkscape:window-maximized="1"
     inkscape:current-layer="layer3" /><defs
     id="defs1"><rect
       x="32.253115"
       y="190.37204"
       width="262.35155"
       height="63.719568"
       id="rect21" /><rect
       x="30.679792"
       y="27.533147"
       width="215.5452"
       height="67.652874"
       id="rect19" /></defs><rect
     style="fill:#a69e9e;stroke:none;stroke-width:0.666001;fill-opacity:1"
     id="rect1"
     width="116.45292"
     height="74.305084"
     x="0.10406873"
     y="0" /><g
     inkscape:label="Layer 1"
     inkscape:groupmode="layer"
     id="layer1"><path
       style="display:inline;fill:#000000"
       d="m 107.82553,68.76614 c -0.0493,-0.428503 -0.34264,-0.64062 -2.39482,-1.73185 C 98.647056,63.427133 94.694763,59.281379 92.490353,53.460513 l -0.66024,-1.743401 -1.444555,-0.116466 C 83.533357,51.048189 79.29861,47.415212 77.939447,40.923164 77.775823,40.141611 77.608041,39.334745 77.566599,39.130128 77.525157,38.92551 76.726779,37.737738 75.792427,36.490634 69.11494,27.578022 70.419378,24.171275 80.012042,25.470444 l 2.439079,0.330333 1.202246,-1.154649 c 2.167076,-2.08128 5.211378,-3.805172 8.180478,-4.632345 l 1.456224,-0.405695 0.628187,-1.880755 c 2.48835,-7.449979 4.972173,-8.6346265 8.621284,-4.111879 1.31635,1.631506 2.76759,4.280636 3.42882,6.259073 0.35846,1.072527 0.58603,1.449197 1.16751,1.932475 l 0.72226,0.600283 v -7.30565 c 0,-7.8473897 0.0198,-8.0161536 0.94142,-8.0161536 0.66716,0 0.65729,-0.4726466 0.65449,31.3420426 -0.002,20.532425 -0.062,30.826255 -0.17915,30.649302 -0.10661,-0.161005 -0.1617,-1.847933 -0.13921,-4.263015 0.18842,-20.231002 -0.051,-57.1954527 -0.37041,-57.1954527 -0.53769,0 -0.55189,0.2010111 -0.55189,7.8152527 0,5.644194 0.17146,9.146466 -0.001,9.204895 -0.53817,0.182 -2.10404,-3.173305 -2.50337,-4.385998 -1.10669,-3.360849 -3.6264,-7.228401 -5.47174,-8.398682 -2.315668,-1.468553 -4.055009,0.268447 -5.986063,5.978006 -0.363457,1.074635 -0.676367,1.975802 -0.695357,2.002594 -0.01899,0.02679 -0.60365,0.206425 -1.299246,0.399184 -3.088093,0.855754 -6.305757,2.660798 -8.555287,4.799341 -1.321275,1.256087 -0.78892,1.193244 -5.151143,0.608074 -4.851588,-0.650815 -6.81026,0.100913 -6.456782,2.47808 0.376646,2.532976 2.038886,5.764022 4.666355,9.070414 0.699534,0.880291 1.102981,1.56737 1.176594,2.003769 1.281582,7.59756 5.34993,11.528094 12.503925,12.080359 l 1.676617,0.129429 0.636981,1.687444 c 2.349349,6.223722 6.324373,10.345283 13.390696,13.884333 1.964,0.983639 2.06235,1.06889 2.06637,1.791129 0.004,0.635193 -0.31203,0.635323 -0.38513,1.58e-4 z m -1.83247,-2.939203 c -5.39203,-2.817463 -8.866089,-6.320845 -11.572977,-11.670664 -1.494084,-2.952864 -1.501076,-2.896779 0.408469,-3.276011 2.052371,-0.407596 2.372043,-0.543132 2.372043,-1.005708 0,-0.438315 -0.443559,-0.423685 -2.753197,0.09081 -7.683935,1.711678 -14.19161,-2.713411 -15.386098,-10.462238 -0.210946,-1.368442 -0.258524,-1.465471 -1.309468,-2.670501 -2.643872,-3.031508 -5.026711,-7.849827 -4.641349,-9.385233 0.307894,-1.226749 2.85366,-1.301819 8.679463,-0.255944 l 1.197347,0.214953 1.384349,-1.375212 c 2.318874,-2.303568 4.866174,-3.832763 7.855436,-4.715772 0.732705,-0.216437 1.521932,-0.449334 1.753838,-0.517549 0.354398,-0.104246 0.554633,-0.506469 1.255487,-2.521973 1.232296,-3.543814 2.326994,-5.497373 3.281897,-5.856757 1.436168,-0.54051 4.7407,3.802195 6.14617,8.077077 0.22483,0.683859 0.53581,1.349222 0.69107,1.478584 0.22542,0.187829 0.22861,0.211776 0.0158,0.11889 -0.27171,-0.118618 0.0155,0.151749 1.82067,1.713848 l 1.07653,0.883826 -0.0552,8.659951 v 8.659951 l -0.53287,0.510529 c -0.66025,0.632558 -0.66991,0.891877 -0.0444,1.191674 l 0.48847,0.234118 V 55.29843 c 0,7.413548 0.0672,13.374459 -0.0488,13.409008 -0.0977,0.02909 -1.10572,-2.370028 -2.08267,-2.880502 z m 1.86507,-10.511536 V 44.395987 l -0.53287,-0.275562 c -0.70432,-0.364215 -0.70384,-1.001768 0.001,-1.804936 l 0.53423,-0.608455 -0.009,-4.351559 -0.009,-4.351559 -0.4801,-0.182535 c -1.29049,-0.49064 -1.38223,-1.033677 -0.30313,-1.794293 0.69022,-0.486515 1.29593,-2.451245 0.75491,-2.448696 -0.0244,1.15e-4 -0.60393,0.105291 -1.28779,0.233725 -3.1019,0.582558 -3.02761,-0.981931 0.1253,-2.638739 1.50854,-0.792711 1.52981,-1.033466 0.1908,-2.158819 -1.92438,-1.617318 -2.09952,-1.843117 -2.52245,-3.251904 -1.04726,-3.488523 -4.17266,-7.993153 -5.545807,-7.993153 -0.770705,0 -2.257455,2.729558 -3.289501,6.039271 -0.395651,1.26883 -0.773619,2.151794 -0.997686,2.330674 -0.360726,0.28798 -0.360726,0.28798 0.02207,1.814235 1.357092,5.410894 -0.96325,5.153256 -3.152061,-0.349987 -0.208511,-0.524251 -0.251976,-0.545402 -0.741267,-0.360715 -0.656237,0.247701 -0.714166,-0.03235 0.651638,3.150293 2.897626,6.752148 -0.181451,6.556849 -4.207547,-0.266875 l -0.373505,-0.633044 -0.523181,0.372537 -0.523181,0.372538 0.496154,0.648197 c 3.53411,4.617112 2.36943,6.64028 -1.521248,2.642565 -0.890753,-0.915259 -0.995073,-0.972006 -1.630253,-0.88681 -0.373233,0.05006 -1.623553,-0.09081 -2.77849,-0.313054 -3.3125,-0.637414 -6.47961,-0.568475 -6.706369,0.145979 -0.433688,1.36643 2.180898,6.510196 4.642528,9.133406 0.615187,0.655568 1.118523,1.261495 1.118523,1.346506 0,0.374249 0.692638,3.949905 0.798229,4.120755 0.07343,0.118805 0.427153,-0.03612 0.947264,-0.414889 2.234959,-1.627592 3.938527,-1.852896 3.938527,-0.520886 0,0.152236 -0.75935,1.049682 -1.687444,1.994326 -1.866409,1.89969 -1.89491,1.969748 -1.153909,2.836401 l 0.519096,0.60712 1.420122,-1.356776 c 0.781068,-0.746227 1.616979,-1.406185 1.857582,-1.466572 1.457972,-0.365928 1.518001,0.458131 0.204057,2.801218 -0.549319,0.979571 -0.97498,1.793868 -0.945914,1.809549 1.271619,0.686032 3.717959,1.311827 5.665463,1.449273 1.445787,0.102038 2.501226,-0.02752 5.354823,-0.657336 1.103767,-0.24361 1.285487,-0.173917 1.455555,0.558232 0.169181,0.728331 -0.140454,0.937357 -2.096037,1.41498 l -1.863998,0.455254 0.541875,1.240797 c 0.744956,1.705819 0.72488,1.688099 1.614157,1.424712 3.224549,-0.955049 3.953227,-0.154432 1.899417,2.08694 l -1.034674,1.129164 0.800266,1.008781 c 0.945487,1.19184 0.891806,1.179768 1.669175,0.375374 2.263461,-2.34215 3.470771,-1.543228 2.290991,1.51604 l -0.56063,1.453747 0.40229,0.428214 c 0.83371,0.887442 5.80342,3.965783 6.42822,3.981771 0.0733,0.0019 0.13322,-4.910327 0.13322,-10.916006 z m -0.7105,4.968957 c 0,-0.04885 0.04,-0.08881 0.0888,-0.08881 0.0489,0 0.0888,0.03997 0.0888,0.08881 0,0.04885 -0.04,0.08881 -0.0888,0.08881 -0.0488,0 -0.0888,-0.03997 -0.0888,-0.08881 z m -0.46103,-0.293883 c -0.0785,-0.127056 -0.0487,-0.156855 0.0783,-0.07833 0.20476,0.126547 0.27491,0.2834 0.12675,0.2834 -0.0431,0 -0.13537,-0.09228 -0.20508,-0.20507 z m -0.4271,-0.238994 c 0,-0.04885 0.04,-0.08881 0.0888,-0.08881 0.0488,0 0.0888,0.03997 0.0888,0.08881 0,0.04885 -0.04,0.08881 -0.0888,0.08881 -0.0489,0 -0.0888,-0.03997 -0.0888,-0.08881 z m -0.46102,-0.293883 c -0.0785,-0.127056 -0.0487,-0.156855 0.0783,-0.07833 0.11279,0.06971 0.20507,0.161989 0.20507,0.20507 0,0.148165 -0.15686,0.07802 -0.2834,-0.12674 z m -0.53288,-0.355252 c -0.0785,-0.127055 -0.0487,-0.156854 0.0783,-0.07833 0.20476,0.126547 0.2749,0.2834 0.12674,0.2834 -0.0431,0 -0.13536,-0.09228 -0.20507,-0.205071 z m -1.05273,-0.711608 c -1.01188,-0.804027 -3.5647,-3.310026 -4.223113,-4.145652 -0.307901,-0.390776 0.277433,0.137495 1.300743,1.173937 1.0233,1.036442 2.2988,2.255398 2.83444,2.708791 1.10165,0.93249 1.16355,1.117596 0.0879,0.262924 z M 99.018072,52.9573 c -0.459858,-0.66414 -0.609339,-0.932534 -0.519371,-0.932534 0.04163,0 0.287276,0.319726 0.54588,0.710502 0.525578,0.794203 0.502648,0.986258 -0.02651,0.222032 z m -0.857497,-1.31523 c -0.07852,-0.127056 -0.04873,-0.156855 0.07833,-0.07833 0.112789,0.06971 0.205071,0.161989 0.205071,0.20507 0,0.148165 -0.156853,0.07802 -0.283401,-0.12674 z m -0.249477,-0.416619 c 0,-0.04885 0.03997,-0.08881 0.08881,-0.08881 0.04885,0 0.08881,0.03997 0.08881,0.08881 0,0.04885 -0.03997,0.08881 -0.08881,0.08881 -0.04885,0 -0.08881,-0.03996 -0.08881,-0.08881 z m -3.286074,-7.82065 c -0.390777,-0.140782 -0.727673,-0.257171 -0.74866,-0.258642 -0.172467,-0.01209 -0.402765,-0.798502 -0.314905,-1.075326 0.187603,-0.591085 0.700464,-0.743952 1.391058,-0.414631 0.794561,0.378899 1.45396,0.210331 1.800784,-0.460352 0.580536,-1.122633 0.326037,-1.685621 -0.839647,-1.85742 -2.373695,-0.349836 -2.364615,-1.670858 0.01968,-2.862824 2.317139,-1.158395 3.265196,-0.57035 2.345607,1.454895 -0.33486,0.737475 -0.33486,0.737475 0.13712,1.172934 1.033601,0.953622 2.173359,0.678649 2.523699,-0.608857 0.11505,-0.422772 0.2375,-0.86859 0.27212,-0.990707 0.0803,-0.283204 1.00126,-0.289584 1.28196,-0.0089 1.20542,1.205417 -0.74237,3.872239 -2.828189,3.872239 -0.948986,0 -1.056027,0.04056 -1.289048,0.488471 -0.752224,1.445911 -2.283226,2.078093 -3.751576,1.549102 z m 2.431207,-0.702055 c 0.364923,-0.247971 0.787393,-0.755309 0.965928,-1.159967 0.315492,-0.71508 0.321765,-0.718562 1.087524,-0.603729 1.933537,0.289951 4.113537,-1.922981 2.995627,-3.040885 -0.38487,-0.384871 -0.57408,-0.222376 -0.70669,0.606912 -0.24939,1.559589 -1.997719,2.136196 -3.220869,1.062256 -0.770433,-0.676449 -0.876537,-0.59617 -0.820176,0.620554 0.07506,1.620356 -1.050064,2.544658 -2.407253,1.977589 -0.702481,-0.293516 -1.075737,-0.146587 -0.885698,0.348646 0.279052,0.727198 2.036001,0.837975 2.991607,0.188624 z m 4.585009,-4.799218 c 0,-0.04885 0.04,-0.08881 0.0888,-0.08881 0.0488,0 0.0888,0.03997 0.0888,0.08881 0,0.04885 -0.04,0.08881 -0.0888,0.08881 -0.0489,0 -0.0888,-0.03997 -0.0888,-0.08881 z m -4.354771,0.87372 c 0.909032,-0.59562 1.273619,-2.595624 0.493373,-2.706479 -0.4948,-0.0703 -2.5434,0.921219 -3.07709,1.489307 -0.864964,0.920712 1.404485,1.989835 2.583717,1.217172 z m -9.386657,1.166714 c -1.755943,-1.541739 -1.265563,-4.083129 0.78787,-4.083129 1.359567,0 2.692863,1.794794 2.382619,3.207324 -0.299564,1.363908 -2.060539,1.850354 -3.170489,0.875805 z m 2.292645,-0.256104 c 1.039817,-1.039816 0.185972,-3.162715 -1.371623,-3.410241 -1.743491,-0.277067 -2.154456,2.228907 -0.569927,3.475297 0.636779,0.500891 1.401217,0.475277 1.94155,-0.06506 z M 78.006626,34.667283 c -1.363802,-1.553285 -3.200851,-4.936706 -3.16145,-5.822662 0.0158,-0.355251 0.0158,-0.355251 0.103177,0 0.558849,2.272117 3.728338,6.963473 4.069198,6.023069 0.06759,-0.186477 0.623682,-1.444608 1.235759,-2.795847 l 1.112866,-2.456799 -0.74204,-0.336904 c -0.871841,-0.395837 -0.577363,-0.466209 0.342527,-0.08185 0.719766,0.300737 0.71472,0.396063 -0.108328,2.046281 -0.267987,0.537318 -0.786604,1.676342 -1.152481,2.531165 -0.74944,1.75097 -0.884189,1.821829 -1.699228,0.893551 z M 100.6643,33.599168 c -2.281926,-0.571348 -2.564264,-4.665734 -0.32174,-4.665734 2.2842,0 3.52121,3.58932 1.55807,4.520893 -0.60222,0.28577 -0.65076,0.291457 -1.23633,0.144841 z m 1.37963,-0.713564 c 1.0405,-1.154584 0.0173,-3.427443 -1.56305,-3.472242 -1.197734,-0.03395 -1.700713,1.253155 -1.036611,2.652646 0.489682,1.031927 1.983811,1.50298 2.599661,0.819596 z M 79.404728,28.812095 c 0.128223,-0.05131 0.281425,-0.045 0.340449,0.01402 0.05902,0.05902 -0.04589,0.101006 -0.233134,0.09329 -0.206924,-0.0085 -0.249013,-0.05061 -0.107315,-0.107316 z m -0.677198,-0.1451 c 0,-0.04885 0.03997,-0.08881 0.08881,-0.08881 0.04885,0 0.08881,0.03997 0.08881,0.08881 0,0.04885 -0.03996,0.08881 -0.08881,0.08881 -0.04885,0 -0.08881,-0.03996 -0.08881,-0.08881 z M 77.839402,28.48937 c 0,-0.04885 0.03996,-0.08881 0.08881,-0.08881 0.04885,0 0.08881,0.03997 0.08881,0.08881 0,0.04885 -0.03996,0.08881 -0.08881,0.08881 -0.04885,0 -0.08881,-0.03997 -0.08881,-0.08881 z m -3.019636,-0.177626 c 0,-0.04885 0.03997,-0.08881 0.08881,-0.08881 0.04885,0 0.08881,0.03997 0.08881,0.08881 0,0.04885 -0.03997,0.08881 -0.08881,0.08881 -0.04885,0 -0.08881,-0.03997 -0.08881,-0.08881 z M 102.88462,21.56197 c 0,-0.04885 0.04,-0.08881 0.0888,-0.08881 0.0489,0 0.0888,0.03997 0.0888,0.08881 0,0.04885 -0.04,0.08881 -0.0888,0.08881 -0.0488,0 -0.0888,-0.03997 -0.0888,-0.08881 z m -0.6513,-0.20723 c 0.0651,-0.06513 0.17171,-0.06513 0.23684,0 0.0651,0.06513 0.0118,0.118417 -0.11842,0.118417 -0.13026,0 -0.18355,-0.05329 -0.11842,-0.118417 z m -0.80301,-0.180547 c 0.12822,-0.05131 0.28142,-0.045 0.34044,0.01402 0.059,0.05902 -0.0459,0.101005 -0.23313,0.09329 -0.20692,-0.0085 -0.24901,-0.05061 -0.10731,-0.107316 z m 1.80956,-0.05629 c 0,-0.130259 0.0533,-0.183546 0.11841,-0.118417 0.0651,0.06513 0.0651,0.171705 0,0.236834 -0.0651,0.06513 -0.11841,0.01184 -0.11841,-0.118417 z m -2.52007,-0.121338 c 0.12823,-0.05131 0.28143,-0.045 0.34045,0.01402 0.059,0.05902 -0.0459,0.101005 -0.23313,0.09329 -0.20693,-0.0085 -0.24901,-0.05061 -0.10732,-0.107315 z m -1.33991,-0.17938 c 0.172824,-0.04504 0.412618,-0.04207 0.532877,0.0066 0.120263,0.04866 -0.02114,0.0855 -0.314226,0.08188 -0.293082,-0.0036 -0.391475,-0.04343 -0.218651,-0.08846 z m -2.712172,-0.676223 c 0,-0.341929 0.03122,-0.62169 0.06938,-0.62169 0.03816,0 0.10204,0.279761 0.141958,0.62169 0.03992,0.34193 0.0087,0.62169 -0.06938,0.62169 -0.07808,0 -0.141959,-0.27976 -0.141958,-0.62169 z m 0.769712,0.503273 c 0.06513,-0.06513 0.171704,-0.06513 0.236834,0 0.06513,0.06513 0.01184,0.118417 -0.118417,0.118417 -0.130259,0 -0.183547,-0.05329 -0.118417,-0.118417 z m 5.62481,-0.05921 c 0,-0.130259 0.0533,-0.183546 0.11842,-0.118417 0.0651,0.06513 0.0651,0.171705 0,0.236834 -0.0651,0.06513 -0.11842,0.01184 -0.11842,-0.118417 z m -0.17762,-0.444064 c 0,-0.04885 0.04,-0.08881 0.0888,-0.08881 0.0489,0 0.0888,0.03997 0.0888,0.08881 0,0.04885 -0.04,0.08881 -0.0888,0.08881 -0.0488,0 -0.0888,-0.03997 -0.0888,-0.08881 z m -0.60389,-1.292749 c -0.66421,-1.362744 -2.338341,-3.869216 -2.823979,-4.227999 -0.215098,-0.158911 -0.271189,-0.254701 -0.124648,-0.212868 0.631616,0.180311 3.827277,5.073995 3.516407,5.384864 -0.0398,0.03981 -0.29531,-0.384987 -0.56778,-0.943997 z m -5.421363,0.308746 c -0.04933,-0.962044 1.511359,-4.78883 1.953038,-4.78883 0.107814,0 -0.01024,0.245134 -0.262343,0.544741 -0.267325,0.317698 -0.686874,1.298633 -1.006616,2.35354 -0.691809,2.28244 -0.667439,2.21509 -0.684079,1.890549 z m 4.062523,41.638903 c 1.41631,-3.201819 0.74971,-3.976837 -1.467979,-1.706729 l -0.855133,0.875343 0.91875,0.826036 c 1.108972,0.99706 0.965922,0.996515 1.404362,0.0053 z m -3.485309,-4.635117 c 1.277321,-1.377937 1.447204,-2.004475 0.543505,-2.004475 -0.644292,0 -2.939151,0.544958 -2.875939,0.682946 0.457741,0.999225 1.292881,2.305395 1.422718,2.225151 0.09282,-0.05736 0.502191,-0.463995 0.909716,-0.903622 z M 85.082949,47.628532 c 2.543658,-3.650784 1.990514,-4.792275 -0.999747,-2.063122 -1.3863,1.26525 -1.387138,1.270289 -0.33777,2.030447 0.881325,0.638429 0.914891,0.639249 1.337517,0.03267 z m -2.111748,-4.688718 c 1.656232,-1.754004 1.88161,-2.175474 1.267538,-2.370373 -0.52561,-0.166822 -4.090204,1.708444 -4.090204,2.151781 0,0.214206 0.987592,2.016089 1.084453,1.978608 0.06613,-0.02559 0.848327,-0.817598 1.738213,-1.760016 z M 107.85813,31.764961 c 0,-0.961534 -0.0688,-0.984977 -0.84372,-0.287381 -0.51543,0.46401 -0.50353,0.585415 0.0888,0.906769 0.71958,0.390376 0.75491,0.361385 0.75491,-0.619388 z M 87.907729,29.889786 c 0.195127,-0.508493 -2.07377,-4.331239 -2.570701,-4.331239 -0.07756,0 -0.497361,0.365322 -0.932901,0.811826 l -0.791892,0.811826 1.211195,1.1521 c 1.817327,1.728656 2.823186,2.235936 3.084299,1.555487 z m 4.417675,-0.131703 c 0.196136,-0.781468 -2.242421,-6.891595 -2.794939,-7.003088 -0.187313,-0.0378 -2.171181,1.088377 -2.60291,1.477584 -0.200902,0.181116 3.427244,4.938511 4.293196,5.62944 0.542273,0.43267 0.980318,0.391455 1.104653,-0.103936 z m 14.848306,-1.364549 c 0.68442,-0.184295 0.68442,-0.184295 0.68442,-1.243203 0,-1.241738 -0.0312,-1.252435 -1.44967,-0.496418 -2.76137,1.471793 -2.28253,2.560304 0.76525,1.739621 z M 94.52382,26.114576 c 0.194563,-0.363543 0.0157,-1.795141 -0.463384,-3.708884 -0.315102,-1.258699 -0.419546,-1.302728 -1.863449,-0.785549 l -0.829406,0.297079 0.740593,1.598788 c 1.310996,2.830171 1.933382,3.499686 2.415646,2.598566 z"
       id="path1"
       sodipodi:nodetypes="ssscssssscsscsssscsscsssscssssssssssscsscscsssssssscssssssscscccsscssccccsccccsssssscsssssssscccsssssssssssscsssssssscssscssscssccsssssccsccsssssccsccccscccsssccsssssssssssssscsssssssssscssccssssssssssssssssssssssssssssssssscsssssssssssssssscssssssssssssssssssssssccscsscsssssssscssssssssssssssssssssssssssssssssssscscsccssssssssssssssssssssssscssssssssscsssscss" /><g
       inkscape:groupmode="layer"
       id="layer2"
       inkscape:label="Layer 2"
       style="display:none"><path
         style="fill:#80a57c;fill-opacity:1;stroke:none;stroke-width:0.666001"
         id="path3"
         sodipodi:type="arc"
         sodipodi:cx="88.74678"
         sodipodi:cy="38.090839"
         sodipodi:rx="1.5821358"
         sodipodi:ry="1.9040818"
         sodipodi:start="0.013084575"
         sodipodi:end="0.7225408"
         sodipodi:arc-type="slice"
         d="m 90.328781,38.115753 a 1.5821358,1.9040818 0 0 1 -0.395196,1.234242 L 88.74678,38.090839 Z" /><ellipse
         style="fill:#80a57c;fill-opacity:1;stroke:none;stroke-width:0.666001"
         id="path4"
         cx="88.94915"
         cy="38.68874"
         rx="0.073587708"
         ry="0.42312932" /></g><path
       style="fill:#a5917c;fill-opacity:1;stroke:none;stroke-width:0.175023"
       d="m 336.29004,151.48056 c -1.34354,-0.2629 -2.43812,-0.8989 -3.65041,-2.12109 -2.46591,-2.48603 -3.41686,-6.14796 -2.3571,-9.07674 0.80376,-2.22131 2.84281,-3.48448 5.11702,-3.16994 2.22433,0.30764 4.10233,1.48275 5.49208,3.43653 1.10389,1.55189 1.65743,3.25762 1.65012,5.08482 -0.006,1.39336 -0.29498,2.4323 -0.95181,3.41684 -1.23622,1.853 -3.33337,2.81437 -5.2999,2.42958 z"
       id="path5"
       transform="scale(0.26458333)" /><path
       style="fill:#a5917c;fill-opacity:1;stroke:none;stroke-width:0.175023"
       d="m 381.31967,125.32778 c -1.52615,-0.3311 -2.90467,-1.0972 -4.0437,-2.24725 -0.76572,-0.77314 -1.18472,-1.40883 -1.63155,-2.47534 -0.62491,-1.49158 -0.91487,-2.9792 -0.84752,-4.3482 0.13978,-2.84136 1.72513,-4.72235 4.22971,-5.01849 1.83334,-0.21677 3.85668,0.56478 5.38734,2.08097 2.55617,2.532 3.49589,6.39582 2.26693,9.32083 -0.60169,1.43206 -1.72994,2.45755 -2.99103,2.7186 -0.50197,0.10392 -1.82799,0.0865 -2.37018,-0.0311 z"
       id="path6"
       transform="scale(0.26458333)" /><path
       style="fill:#a5917c;fill-opacity:1;stroke:none;stroke-width:0.175023"
       d="m 362.92068,147.47008 c -1.86202,-0.22625 -3.67909,-1.01148 -4.73117,-2.04454 -0.86456,-0.84893 -1.12266,-1.68593 -0.79333,-2.57267 0.38851,-1.04611 2.58469,-2.64739 5.92458,-4.31973 2.63887,-1.32133 5.038,-2.18529 6.05353,-2.17996 0.62383,0.003 1.23297,0.49677 1.50255,1.21728 0.70344,1.88012 -0.11263,5.34797 -1.78191,7.57216 -0.90566,1.20673 -2.02822,1.90616 -3.58484,2.2336 -0.6293,0.13238 -1.89488,0.17825 -2.58941,0.0939 z"
       id="path7"
       transform="scale(0.26458333)" /><path
       style="fill:#a5917c;fill-opacity:1;stroke:none;stroke-width:0.175023"
       d="m 359.86129,162.93365 c -1.3336,-0.12115 -2.64824,-0.57361 -3.4621,-1.19155 -0.81481,-0.61866 -1.25439,-1.82079 -0.88645,-2.42423 0.20932,-0.34329 0.50819,-0.46699 1.11532,-0.46161 0.6173,0.005 1.06299,0.11645 2.30923,0.57503 1.1533,0.42438 1.88625,0.56967 2.87301,0.56949 1.63068,-2.9e-4 2.80728,-0.45794 3.94488,-1.53441 1.10619,-1.04676 1.78273,-2.38921 2.10949,-4.18586 0.0952,-0.52367 0.12001,-1.12391 0.12727,-3.08384 0.01,-2.65346 0.0344,-2.8414 0.40784,-3.12021 0.1594,-0.11901 0.21655,-0.12628 0.44602,-0.0568 0.37541,0.11374 0.97782,0.52773 1.89157,1.29995 0.943,0.79693 1.43652,1.14045 2.15179,1.49777 1.97753,0.98789 4.23132,1.09085 6.18209,0.28241 1.2153,-0.50365 2.42602,-1.53815 3.13888,-2.68202 0.517,-0.8296 0.81667,-1.66917 1.09286,-3.0618 0.12893,-0.65012 0.28555,-1.33849 0.34804,-1.5297 0.27868,-0.85268 0.61956,-1.28633 1.01114,-1.28633 0.65256,0 1.76283,1.12685 2.15801,2.19024 0.13038,0.35086 0.15473,0.5554 0.15316,1.28634 -0.002,0.80029 -0.0203,0.92307 -0.23394,1.54979 -1.12258,3.29254 -5.12617,6.38465 -9.15947,7.07418 -1.02813,0.17577 -2.14079,0.17474 -3.39311,-0.003 -1.76339,-0.25046 -2.3194,-0.16087 -2.7612,0.44489 -0.11483,0.15746 -0.51765,0.91207 -0.89514,1.67692 -0.7555,1.53072 -1.22658,2.22278 -2.21994,3.26128 -1.0459,1.09342 -1.87729,1.6769 -3.08107,2.1623 -1.50918,0.60855 -3.64549,0.90736 -5.36818,0.75086 z m 24.84211,-19.38941 c 0.18023,-0.12624 0.20209,-0.39052 0.0453,-0.54734 -0.27738,-0.27738 -0.73266,0.0266 -0.59239,0.39554 0.10178,0.26771 0.30224,0.32332 0.54712,0.1518 z"
       id="path8"
       transform="scale(0.26458333)" /><path
       style="fill:#e4bb39;fill-opacity:0.55183947;stroke:none;stroke-width:0.700091"
       d="m 403.49196,248.55688 c -7.28342,-3.77951 -18.34748,-11.09592 -21.03731,-13.9115 l -0.94312,-0.98721 1.43361,-3.77287 c 0.78849,-2.07508 1.6178,-4.55406 1.84292,-5.50884 0.78627,-3.33477 0.40185,-6.50764 -0.8465,-6.98668 -2.10509,-0.80779 -4.7315,0.5865 -9.20127,4.88473 -1.24331,1.19559 -2.43819,2.1738 -2.65529,2.1738 -0.50204,0 -1.82318,-1.40633 -4.3817,-4.66423 l -2.02479,-2.57828 2.33605,-2.56706 c 4.37846,-4.81148 5.78783,-6.95998 5.78783,-8.82324 0,-2.71427 -3.32938,-3.06871 -10.76884,-1.14644 -1.83555,0.47429 -3.24428,0.70034 -3.58315,0.57499 -0.30713,-0.11362 -0.94513,-0.93929 -1.41777,-1.83482 -0.99049,-1.87672 -3.75964,-8.19885 -3.64022,-8.31085 0.0441,-0.0414 2.58331,-0.69664 5.64271,-1.45617 5.97496,-1.48335 7.99305,-2.272 8.86063,-3.46267 0.50475,-0.69272 0.52108,-0.8827 0.19937,-2.32024 -0.43188,-1.9298 -1.07515,-2.62686 -2.42417,-2.62686 -0.55697,0 -3.77976,0.55678 -7.16177,1.2373 -7.58307,1.52585 -11.34058,1.94722 -15.26873,1.71226 -5.90703,-0.35334 -13.64468,-2.0034 -18.99914,-4.05159 -3.63763,-1.39146 -3.58179,-0.8468 -0.6433,-6.27508 3.21046,-5.93067 4.17379,-8.18049 4.35408,-10.16885 0.12218,-1.34737 0.0575,-1.65914 -0.44895,-2.16563 -0.65414,-0.65415 -2.01514,-0.77269 -3.65106,-0.31801 -1.29663,0.36037 -4.63361,3.03916 -8.98716,7.21452 l -3.5637,3.41783 -1.0254,-1.18084 c -1.39567,-1.60725 -2.55509,-3.33083 -2.55509,-3.79838 0,-1.01391 1.43585,-2.86996 5.56871,-7.19838 2.47249,-2.58948 5.05884,-5.4559 5.74746,-6.36985 1.08119,-1.43496 1.23065,-1.79345 1.09535,-2.62725 -0.51523,-3.17495 -4.7685,-3.34197 -10.163,-0.39908 -0.98138,0.53537 -3.09504,1.84516 -4.69702,2.91064 -1.60198,1.06548 -3.04911,1.89176 -3.21585,1.83618 -0.16674,-0.0556 -0.46502,-0.65475 -0.66285,-1.33149 -0.48587,-1.66204 -2.57286,-12.61872 -2.57286,-13.50747 0,-0.89567 -0.65051,-1.8113 -3.62748,-5.10588 -6.09897,-6.74966 -10.99288,-14.18271 -14.94931,-22.70556 -2.28545,-4.92326 -3.20965,-7.92207 -3.23478,-10.49609 -0.0199,-2.03611 0.0287,-2.22822 0.68915,-2.72549 1.69003,-1.27246 8.75154,-1.68952 15.84981,-0.93612 2.07158,0.21988 6.01403,0.79107 8.76099,1.2693 2.92678,0.50954 6.43379,0.92524 8.47107,1.0041 1.91212,0.074 3.76805,0.19471 4.12429,0.26822 0.35623,0.0735 2.30838,1.74204 4.33809,3.70786 2.02972,1.96581 4.4644,4.14399 5.4104,4.8404 5.68391,4.18426 9.01433,3.41056 7.7041,-1.78975 -0.86108,-3.4176 -4.24954,-9.42751 -8.04785,-14.274032 -0.7103,-0.906315 -1.2899,-1.719836 -1.28801,-1.807824 0.003,-0.144626 0.41738,-0.44616 2.80581,-2.042274 l 0.73572,-0.491662 2.37185,3.829183 c 5.93294,9.578299 11.18281,15.698339 15.10003,17.602919 1.49112,0.72499 2.42541,0.69387 3.36228,-0.112 1.90282,-1.63673 0.85612,-8.16535 -2.67811,-16.704323 -0.57365,-1.385973 -1.83083,-4.397307 -2.79373,-6.691853 -0.9629,-2.294546 -1.76238,-4.590761 -1.77661,-5.1027 -0.0239,-0.858706 0.076,-0.971278 1.28996,-1.453452 0.72372,-0.287464 1.48676,-0.457071 1.69566,-0.376909 0.2089,0.08016 0.91421,1.422579 1.56735,2.983152 5.02082,11.996406 10.82537,17.983805 12.69318,13.093029 0.74756,-1.95747 0.39552,-6.941407 -0.87175,-12.341578 -1.44523,-6.158445 -1.46375,-6.4081 -0.5485,-7.392318 1.1303,-1.215481 2.1398,-3.423524 3.61392,-7.904655 3.90441,-11.868869 8.33975,-20.903422 11.41288,-23.247406 1.28487,-0.980023 2.3614,-0.767204 4.58879,0.907161 6.11826,4.599177 14.20154,17.973733 17.92376,29.656576 1.31248,4.119424 2.38696,5.422065 9.60458,11.644086 1.90751,1.644386 3.33752,3.305729 3.33752,3.877432 0,0.629774 -1.87005,2.201257 -4.07059,3.420695 -6.8315,3.785683 -10.1407,7.066403 -9.41957,9.338483 0.51311,1.61667 4.39447,1.94369 10.22705,0.86168 1.80007,-0.33393 3.40972,-0.52257 3.57698,-0.4192 0.60527,0.37407 0.12021,3.25616 -0.91483,5.43566 -0.77364,1.62906 -1.36934,2.41481 -2.72397,3.59303 -1.90694,1.65861 -2.64094,2.78913 -2.40952,3.71118 0.24563,0.97864 1.61038,2.07256 3.66938,2.94121 l 1.92601,0.81254 0.0717,16.36582 0.0717,16.36583 -1.41431,1.6593 c -3.29543,3.86627 -3.33459,6.13402 -0.13479,7.806 l 1.54342,0.80647 6.6e-4,34.37315 c 7.4e-4,38.18926 -0.14813,47.81332 -0.73961,47.81332 -0.20524,0 -1.65582,-0.6656 -3.2235,-1.4791 z m 2.23127,-20.7189 c 0.0606,-0.18165 -0.0881,-0.33027 -0.33027,-0.33027 -0.2422,0 -0.44037,0.19816 -0.44037,0.44036 0,0.49116 0.59874,0.40562 0.77064,-0.11009 z m -1.32689,-0.51697 c 0,-0.28049 -0.88638,-1.20394 -1.15562,-1.20394 -0.34787,0 -0.28499,0.67316 0.0987,1.05688 0.35782,0.35783 1.05688,0.4551 1.05688,0.14706 z m -2.08595,-1.48206 c 0,-0.20396 -0.15645,-0.42299 -0.34766,-0.48673 -0.20681,-0.0689 -0.34766,0.12825 -0.34766,0.48673 0,0.35847 0.14085,0.55565 0.34766,0.48672 0.19121,-0.0637 0.34766,-0.28277 0.34766,-0.48672 z m -1.25157,-0.59513 c 0,-0.32361 -0.80505,-1.0488 -1.18204,-1.06479 -0.32693,-0.0139 -0.24423,0.67865 0.12516,1.04804 0.42288,0.42288 1.05688,0.43293 1.05688,0.0168 z m -1.94689,-1.30865 c 0,-0.3745 -1.05056,-1.22262 -1.37888,-1.11318 -0.41436,0.13812 0.46296,1.3482 0.97746,1.3482 0.22078,0 0.40142,-0.10577 0.40142,-0.23502 z m -5.00338,-3.88099 c -1.60459,-1.48396 -5.88698,-5.608 -9.51642,-9.16455 -6.23029,-6.10516 -7.64762,-7.31467 -6.871,-5.86355 0.47455,0.88669 9.61827,10.12115 12.92761,13.05588 5.62001,4.98385 8.47759,6.61278 3.45981,1.97222 z m -18.08114,-18.04017 c 0,-0.6059 -3.23148,-5.37838 -3.64174,-5.37838 -0.42629,0 -0.28386,0.51625 0.48113,1.74382 1.75878,2.82233 3.16061,4.43437 3.16061,3.63456 z m -3.94292,-6.39154 c -0.1075,-0.54625 -0.95529,-1.13451 -1.23374,-0.85606 -0.22012,0.22013 0.66903,1.31297 1.06825,1.31297 0.14048,0 0.21495,-0.20561 0.16549,-0.45691 z m -1.34149,-1.89075 c 0,-0.22043 -0.11651,-0.47278 -0.25891,-0.56079 -0.33066,-0.20436 -0.66322,0.31644 -0.43641,0.68344 0.25576,0.41381 0.69532,0.33628 0.69532,-0.12265 z m -6.58593,-29.21841 c 3.25978,-0.84906 5.47652,-2.51874 7.41135,-5.58233 0.61369,-0.97171 1.35916,-1.89699 1.6566,-2.05618 0.29744,-0.15918 1.21441,-0.28942 2.03771,-0.28942 3.95312,0 6.85649,-1.14417 9.69271,-3.81971 3.50228,-3.30387 4.81132,-7.35513 3.26537,-10.10577 -0.90899,-1.61733 -2.96132,-2.30543 -4.8806,-1.63636 -0.75261,0.26236 -0.89779,0.51867 -1.45725,2.57267 -1.20278,4.41592 -2.71241,6.16028 -5.29758,6.12128 -0.71103,-0.0107 -1.72194,-0.23763 -2.24648,-0.50422 -1.48115,-0.75279 -3.29985,-2.33315 -3.47134,-3.01642 -0.091,-0.36238 0.19042,-1.48114 0.68005,-2.70392 1.62867,-4.06743 1.74023,-5.9975 0.41822,-7.23586 -0.62026,-0.58101 -0.96228,-0.66484 -2.56842,-0.62952 -2.10654,0.0463 -4.54066,0.86564 -7.80998,2.62878 -5.235,2.82324 -7.07307,5.72354 -5.10762,8.05935 0.93541,1.11166 2.35667,1.75039 5.18367,2.32958 1.20153,0.24616 2.59319,0.61829 3.09258,0.82694 2.01597,0.84233 2.36177,2.87083 0.96565,5.66471 -1.46228,2.92629 -3.15953,3.4452 -6.94392,2.12301 -2.46153,-0.86001 -3.54179,-0.74912 -4.56657,0.46876 -0.83404,0.9912 -0.95782,2.73647 -0.3049,4.29911 0.45697,1.09369 1.26576,1.52244 4.44439,2.35607 2.42301,0.63546 3.75009,0.66504 5.80636,0.12945 z m -23.05989,-12.48748 c 2.57227,-1.50746 3.82599,-4.40861 3.25049,-7.52179 -0.64578,-3.49335 -3.04766,-6.78607 -6.01611,-8.24743 -1.61987,-0.79746 -1.97886,-0.87064 -3.67408,-0.74895 -3.0679,0.22022 -4.7893,1.3721 -5.9424,3.97639 -1.87592,4.23677 0.53475,10.25897 5.04614,12.60599 1.67947,0.87373 1.93921,0.92789 3.91718,0.81681 1.66749,-0.0936 2.39523,-0.28118 3.41878,-0.88102 z m -42.72216,-18.96275 c 0.65844,-0.46119 2.00653,-2.95773 3.57864,-6.62734 0.51789,-1.20885 2.07036,-4.60634 3.44994,-7.55 2.94673,-6.28755 3.1395,-7.0187 2.07184,-7.85852 -1.36312,-1.07223 -5.23046,-2.24785 -4.72982,-1.4378 0.0971,0.15708 1.16206,0.78113 2.36663,1.38677 l 2.19012,1.10117 -1.81122,3.96717 c -0.99616,2.18195 -3.02065,6.68934 -4.49885,10.01643 -1.50581,3.38922 -2.84626,6.04926 -3.04836,6.04926 -0.6199,0 -2.81763,-2.23199 -4.81701,-4.8921 -3.89034,-5.17596 -7.78558,-12.28408 -9.35508,-17.07137 l -0.77785,-2.37262 -0.0863,1.19873 c -0.11225,1.55852 0.47523,3.33142 2.45982,7.4232 3.94791,8.13972 10.2493,16.94288 12.23582,17.09366 0.0807,0.006 0.42797,-0.18586 0.77172,-0.42664 z m 86.96963,-6.61375 c 1.21973,-0.6769 1.89328,-1.28756 2.50315,-2.26942 0.78303,-1.26066 0.83438,-1.5158 0.83438,-4.14639 0,-2.57013 -0.0731,-2.95748 -0.88014,-4.66086 -1.79578,-3.7905 -4.54949,-5.81567 -8.14833,-5.99258 -1.80122,-0.0885 -2.25218,-0.0124 -3.20089,0.54037 -2.15123,1.25343 -3.39589,4.21497 -3.12455,7.43453 0.39537,4.69111 2.81111,8.26903 6.42703,9.51895 2.2054,0.76235 3.64805,0.65276 5.58935,-0.4246 z M 301.48943,109.0257 c 0,-0.15297 -0.36808,-0.27813 -0.81797,-0.27813 -0.44988,0 -0.89531,0.12516 -0.98985,0.27813 -0.1023,0.16552 0.22888,0.27812 0.81796,0.27812 0.54442,0 0.98986,-0.12515 0.98986,-0.27812 z m -3.05939,-0.53984 c 0,-0.37557 -0.50701,-0.63593 -0.83892,-0.4308 -0.15547,0.0961 -0.21066,0.2912 -0.12265,0.4336 0.20878,0.33782 0.96157,0.33562 0.96157,-0.003 z m -3.40126,-0.79865 c 0.0615,-0.18449 -0.14567,-0.33027 -0.46934,-0.33027 -0.57776,0 -0.75093,0.29205 -0.38822,0.65476 0.25768,0.25767 0.72208,0.0819 0.85756,-0.32449 z m -11.409,-0.67793 c -0.0637,-0.19121 -0.28276,-0.34766 -0.48672,-0.34766 -0.20396,0 -0.42298,0.15645 -0.48672,0.34766 -0.0689,0.20681 0.12825,0.34766 0.48672,0.34766 0.35848,0 0.55566,-0.14085 0.48672,-0.34766 z M 389.51656,81.491147 c 0,-0.203959 -0.15645,-0.422984 -0.34766,-0.486722 -0.20681,-0.06894 -0.34766,0.128247 -0.34766,0.486722 0,0.358475 0.14085,0.555658 0.34766,0.486722 0.19121,-0.06374 0.34766,-0.282764 0.34766,-0.486722 z m -2.08595,-0.539839 c 0,-0.143942 -0.13116,-0.342769 -0.29145,-0.441838 -0.40821,-0.252286 -1.17125,0.08382 -0.96134,0.42346 0.21877,0.353966 1.25279,0.369135 1.25279,0.01838 z m -2.94468,-0.462747 c 0.61125,-0.234561 0.26663,-0.666175 -0.53191,-0.666175 -0.68396,0 -1.09295,0.34404 -0.78046,0.656524 0.22364,0.223639 0.74474,0.227471 1.31237,0.0097 z m 6.42126,-0.666175 c 0,-0.203959 -0.15645,-0.422984 -0.34766,-0.486722 -0.20681,-0.06894 -0.34766,0.128247 -0.34766,0.486722 0,0.358475 0.14085,0.555658 0.34766,0.486722 0.19121,-0.06374 0.34766,-0.282763 0.34766,-0.486722 z m -8.76099,-0.24837 c 0,-0.367066 -0.69822,-0.56954 -1.36381,-0.395485 -0.92269,0.241289 -0.67861,0.643855 0.39036,0.643855 0.5354,0 0.97345,-0.111768 0.97345,-0.24837 z m -4.80082,-0.482364 c 0.93639,-0.250973 0.46437,-0.6599 -0.76172,-0.6599 -1.13882,0 -1.7394,0.424958 -0.90732,0.642006 0.75111,0.195926 0.99504,0.198541 1.66904,0.01789 z M 366.2289,76.293466 c -0.14451,-2.251715 -0.60652,-3.200251 -0.93034,-1.910051 -0.20347,0.810703 -0.001,3.562564 0.29748,4.045723 0.0985,0.159397 0.311,0.208306 0.47219,0.108683 0.18288,-0.113025 0.24329,-0.956906 0.16067,-2.244355 z m 3.04264,1.963959 c 0.13577,-0.407817 -0.56223,-0.672066 -1.02301,-0.387289 -0.19693,0.121714 -0.26778,0.367378 -0.15744,0.545921 0.24042,0.388994 1.03362,0.282402 1.18045,-0.158632 z m 20.89015,-0.451458 c -0.0489,-0.344182 -0.21404,-0.625785 -0.36701,-0.625785 -0.15297,0 -0.31812,0.281603 -0.367,0.625785 -0.0611,0.430587 0.0533,0.625785 0.367,0.625785 0.31368,0 0.42816,-0.195198 0.36701,-0.625785 z m -0.50607,-1.738293 c 0,-0.229454 -0.18774,-0.41719 -0.41719,-0.41719 -0.22946,0 -0.41719,0.187736 -0.41719,0.41719 0,0.229455 0.18773,0.417191 0.41719,0.417191 0.22945,0 0.41719,-0.187736 0.41719,-0.417191 z m -0.83438,-1.813381 c 0,-1.302208 -4.2462,-8.618847 -8.29902,-14.300057 -1.8985,-2.661301 -4.6907,-5.719514 -5.22202,-5.719514 -0.61181,0 -0.44873,0.501867 0.32858,1.011181 1.63967,1.074357 7.24439,9.414783 10.95498,16.302211 1.72895,3.209193 2.23748,3.824249 2.23748,2.706179 z m -20.70959,-6.669485 c 1.8169,-5.894078 3.18538,-9.231611 4.6599,-11.364876 1.14629,-1.658389 1.26271,-2.070651 0.54579,-1.932583 -1.11742,0.215195 -3.73798,5.485873 -5.92997,11.926834 -1.12735,3.312623 -1.82735,7.445002 -1.15087,6.794097 0.15898,-0.15297 1.00279,-2.593532 1.87515,-5.423472 z"
       id="path9"
       transform="scale(0.26458333)" /><path
       style="fill:#b96719;fill-opacity:0.55183899;stroke:none;stroke-width:0.700091"
       d="m 306.208,167.64092 c -0.30672,-0.49715 -1.14969,-2.05962 -1.87327,-3.47216 -1.06302,-2.07515 -1.25658,-2.66253 -1.00819,-3.05939 0.84878,-1.35608 10.20799,-6.56113 13.19816,-7.34004 1.73648,-0.45235 2.76484,-0.16893 2.76484,0.76199 0,0.82814 -0.6003,1.75845 -2.76116,4.27907 -2.10666,2.4574 -9.22571,9.73444 -9.52309,9.73444 -0.1318,0 -0.49058,-0.40676 -0.79729,-0.90391 z"
       id="path10"
       transform="scale(0.26458333)" /><path
       style="fill:#b96719;fill-opacity:0.551839;stroke:none;stroke-width:0.700091"
       d="m 317.6106,180.4533 c -2.01229,-1.34375 -3.88359,-3.04865 -3.88359,-3.53825 0,-0.84152 6.23677,-6.6571 9.28183,-8.655 0.93729,-0.61497 2.18868,-1.26488 2.78084,-1.44424 0.9567,-0.28977 1.11963,-0.26735 1.46226,0.20122 0.25198,0.3446 0.326,0.86933 0.21361,1.51429 -0.26891,1.54324 -2.41336,5.88887 -4.44144,9.00041 -2.02761,3.11082 -2.82277,4.08506 -3.33416,4.08506 -0.18536,0 -1.12107,-0.52357 -2.07935,-1.16349 z"
       id="path11"
       transform="scale(0.26458333)" /><path
       style="fill:#b96719;fill-opacity:0.551839;stroke:none;stroke-width:0.700091"
       d="m 329.58023,113.65513 c -2.10972,-0.76382 -4.93755,-2.96888 -10.24356,-7.98765 l -3.10308,-2.93508 3.01611,-2.972138 c 1.65886,-1.634678 3.14403,-2.972142 3.30038,-2.972142 0.97664,0 4.7079,5.35346 7.48025,10.73237 2.10477,4.08368 2.404,5.27655 1.50602,6.00369 -0.73025,0.59133 -0.69167,0.58874 -1.95612,0.13095 z"
       id="path12"
       transform="scale(0.26458333)" /><path
       style="fill:#b96719;fill-opacity:0.551839;stroke:none;stroke-width:0.700091"
       d="m 345.22067,112.93483 c -1.46602,-1.06198 -4.46208,-4.5027 -8.88973,-10.20908 -3.70892,-4.780095 -7.57701,-10.306943 -7.58211,-10.833575 -0.006,-0.623579 8.43532,-5.672873 9.48386,-5.672873 1.22913,0 6.22958,10.874265 9.14446,19.886068 1.42704,4.41192 1.6869,6.3074 0.97288,7.09639 -0.70599,0.78011 -1.81449,0.68555 -3.12936,-0.26693 z"
       id="path13"
       transform="scale(0.26458333)" /><path
       style="fill:#b96719;fill-opacity:0.551839;stroke:none;stroke-width:0.700091"
       d="m 354.5615,99.557957 c -0.9124,-0.532285 -3.08759,-4.235648 -5.96925,-10.162928 -1.6064,-3.30421 -2.86477,-6.152703 -2.79636,-6.329983 0.1491,-0.386403 5.96747,-2.40828 6.93033,-2.40828 0.37177,0 0.9436,0.2849 1.27073,0.63311 1.03115,1.09761 3.01557,9.697442 3.28743,14.246673 0.13173,2.204332 0.0812,2.611045 -0.42311,3.407053 -0.59283,0.935703 -1.38583,1.147538 -2.29977,0.614355 z"
       id="path14"
       transform="scale(0.26458333)" /><path
       style="fill:#b96719;fill-opacity:0.551839;stroke:none;stroke-width:0.700091"
       d="m 363.9948,214.67138 c -1.11117,-1.47997 -2.5599,-3.8455 -3.51116,-5.73313 l -0.87826,-1.7428 0.77112,-0.29451 c 2.57644,-0.98402 9.45772,-2.24305 10.82791,-1.98112 0.9818,0.18768 1.29923,0.97021 0.83955,2.06968 -0.49181,1.17633 -3.26751,4.59776 -5.55514,6.8475 l -1.79506,1.76532 z"
       id="path15"
       transform="scale(0.26458333)" /><path
       style="fill:#b96719;fill-opacity:0.551839;stroke:none;stroke-width:0.700091"
       d="m 379.07781,232.04699 c -0.37748,-0.25581 -1.87532,-1.53324 -3.32853,-2.83873 -1.45321,-1.3055 -2.70368,-2.41924 -2.77881,-2.475 -0.25514,-0.18934 6.27895,-6.39585 7.64643,-7.26308 4.19589,-2.66095 4.56207,1.05228 0.94679,9.60082 -1.44725,3.42212 -1.58472,3.58669 -2.48588,2.97599 z"
       id="path16"
       transform="scale(0.26458333)" /><path
       style="fill:#b96719;fill-opacity:0.551839;stroke:none;stroke-width:0.700091"
       d="m 396.33066,107.85346 c -2.2782,-1.21345 0.4918,-4.16901 7.08865,-7.56351 2.62022,-1.348269 3.59078,-1.558279 3.8676,-0.836879 0.0928,0.241966 0.16882,1.729989 0.16882,3.306709 0,2.32192 -0.0925,2.97799 -0.48672,3.45195 -1.04897,1.26117 -9.03811,2.49407 -10.63835,1.64173 z"
       id="path17"
       transform="scale(0.26458333)" /><path
       style="fill:#b96719;fill-opacity:0.551839;stroke:none;stroke-width:0.700091"
       d="m 405.34167,122.49321 c -1.80653,-0.95059 -2.15549,-1.31849 -1.92862,-2.03328 0.22281,-0.70203 3.1528,-3.15492 3.59424,-3.00899 0.33623,0.11114 0.58133,4.07938 0.31702,5.13251 -0.1982,0.78969 -0.32101,0.7841 -1.98264,-0.0902 z"
       id="path18"
       transform="scale(0.26458333)" /><path
       style="fill:#895012;fill-opacity:0.69230771;stroke:none;stroke-width:0.700091"
       d="m 399.52912,252.09939 c -17.37826,-9.17652 -27.9927,-17.61438 -36.71438,-29.18578 -5.20945,-6.91159 -8.89865,-13.85517 -12.65663,-23.82152 -0.94204,-2.49832 -1.79596,-4.62836 -1.89762,-4.73342 -0.10165,-0.10506 -2.45508,-0.38807 -5.22984,-0.62891 -7.9477,-0.68985 -12.76856,-1.66577 -18.14082,-3.67236 -6.25554,-2.33651 -10.7374,-5.20531 -15.33945,-9.81866 -7.19798,-7.21566 -11.6837,-16.4214 -14.30182,-29.3507 -0.40221,-1.98626 -1.01897,-4.23909 -1.37058,-5.00628 -0.35162,-0.76719 -2.24174,-3.5204 -4.20028,-6.11824 -9.32246,-12.36547 -14.23318,-21.49436 -16.4216,-30.52727 -1.52305,-6.28658 -0.61295,-9.40986 3.30382,-11.338079 4.3651,-2.148933 9.90855,-2.208299 24.6088,-0.263536 6.82063,0.902332 9.87256,1.02221 11.26047,0.442305 0.50013,-0.208968 2.21702,-1.60292 3.81531,-3.097674 5.22044,-4.882262 10.87606,-8.885694 17.26035,-12.218051 5.56139,-2.902834 9.18945,-4.3234 17.38964,-6.80891 l 2.81882,-0.854395 1.32485,-3.826084 c 5.22106,-15.078017 8.5183,-21.892753 12.30752,-25.437121 2.13905,-2.000836 3.43611,-2.566077 5.91309,-2.576857 1.86791,-0.0081 2.32649,0.103543 4.17191,1.015932 6.697,3.311056 16.43702,17.194115 21.13506,30.125134 1.55624,4.283416 3.86038,9.61133 5.45581,12.615541 0.84153,1.584605 1.40611,2.836176 1.25463,2.781268 -0.15149,-0.05491 -1.72166,-1.382654 -3.48928,-2.950544 -2.18942,-1.94204 -3.1628,-2.983716 -3.05371,-3.26799 0.0881,-0.229504 0.0234,-0.417282 -0.14375,-0.417282 -0.45852,0 -1.83666,-2.913689 -3.25505,-6.88191 -1.65388,-4.627045 -5.66188,-12.759446 -8.19096,-16.619803 -5.35835,-8.178924 -10.38974,-12.932895 -13.68758,-12.932895 -1.37218,0 -2.29351,0.494353 -3.71644,1.994112 -3.07087,3.236689 -5.95245,9.200346 -10.25786,21.229474 -1.9328,5.400143 -3.04708,7.824588 -3.77532,8.214333 -0.30171,0.161469 -2.62209,0.915705 -5.1564,1.676078 -6.31459,1.89458 -9.34232,3.059723 -13.7383,5.286815 -6.95025,3.521146 -11.99003,7.268568 -18.92348,14.070904 l -4.32183,4.240095 -4.57823,-0.82752 c -18.94982,-3.42523 -29.07276,-3.568012 -31.93884,-0.4505 -2.02975,2.20782 -0.78402,8.13299 3.57796,17.01824 3.70432,7.54558 7.58884,13.5239 12.92135,19.88606 3.93804,4.69843 4.19444,5.22067 5.18278,10.55654 2.28938,12.35981 6.13475,20.11431 13.73076,27.68926 5.21469,5.20021 10.24373,8.34701 16.84011,10.53726 4.94923,1.64334 7.88732,2.14039 13.65831,2.31064 6.07855,0.17933 8.47735,-0.0582 16.10288,-1.59428 7.15488,-1.4413 8.06405,-1.442 8.06405,-0.006 0,1.51287 -0.97782,1.9342 -8.06568,3.47533 -5.07191,1.1028 -5.70126,1.32041 -6.12868,2.11905 -0.61039,1.14051 -0.006,2.95989 2.93356,8.82479 6.25828,12.48805 11.9268,20.52202 20.08048,28.45998 6.26065,6.09503 12.77916,10.88506 21.46586,15.77388 3.66723,2.0639 4.46759,2.63936 5.58492,4.01561 1.42328,1.7531 2.67978,3.81865 2.32024,3.81421 -0.12452,-0.002 -2.72954,-1.32457 -5.78893,-2.94007 z"
       id="path19"
       transform="scale(0.26458333)" /><text
       xml:space="preserve"
       transform="scale(0.26458333)"
       id="text19"
       style="font-family:'PT Sans';-inkscape-font-specification:'PT Sans';writing-mode:lr-tb;direction:ltr;white-space:pre;shape-inside:url(#rect19);display:inline;fill:#895012;fill-opacity:0.692308;stroke:none;stroke-width:2.51717" /><text
       xml:space="preserve"
       style="font-size:24.3989px;font-family:'PT Sans';-inkscape-font-specification:'PT Sans';writing-mode:lr-tb;direction:ltr;fill:#650e0e;fill-opacity:0.69230801;stroke:none;stroke-width:5.11804"
       x="4.4925265"
       y="27.73933"
       id="text20"><tspan
         sodipodi:role="line"
         id="tspan20"
         style="font-style:normal;font-variant:normal;font-weight:normal;font-stretch:normal;font-family:Chalkboard;-inkscape-font-specification:Chalkboard;fill:#650e0e;fill-opacity:0.69230801;stroke-width:5.11802"
         x="4.4925265"
         y="27.73933">Tabby</tspan></text><text
       xml:space="preserve"
       style="font-size:24.3989px;font-family:'PT Sans';-inkscape-font-specification:'PT Sans';writing-mode:lr-tb;direction:ltr;fill:#2a0606;fill-opacity:0.69230801;stroke:none;stroke-width:5.11804"
       x="5.5218081"
       y="49.039608"
       id="text20-3"><tspan
         sodipodi:role="line"
         id="tspan20-5"
         style="font-style:normal;font-variant:normal;font-weight:normal;font-stretch:normal;font-family:Chalkboard;-inkscape-font-specification:Chalkboard;fill:#2a0606;fill-opacity:0.69230801;stroke-width:5.11802"
         x="5.5218081"
         y="49.039608">Sitter</tspan></text><text
       xml:space="preserve"
       transform="matrix(0.88473559,0,0,0.88473559,-21.809852,-117.81745)"
       id="text21"
       style="font-style:normal;font-variant:normal;font-weight:normal;font-stretch:normal;font-family:Chalkboard;-inkscape-font-specification:Chalkboard;writing-mode:lr-tb;direction:ltr;white-space:pre;shape-inside:url(#rect21);display:inline;fill:#e8e80c;fill-opacity:1;stroke:none;stroke-width:2.51717"><tspan
         x="32.253906"
         y="201.18343"
         id="tspan1">tame your tabs</tspan></text><path
       style="fill:#ddbf51;fill-opacity:1;stroke:none;stroke-width:0.990078"
       d="m 401.97489,247.47137 c -7.53462,-4.19356 -14.05569,-8.46167 -18.02025,-11.79442 -2.39682,-2.01486 -2.37712,-1.55098 -0.31198,-7.3485 1.75666,-4.93152 2.1303,-7.74256 1.29489,-9.74197 -0.54679,-1.30864 -0.76663,-1.46795 -2.02575,-1.46795 -1.87789,0 -3.92999,1.0961 -6.7374,3.59871 -1.27248,1.13433 -2.71185,2.4125 -3.1986,2.84039 l -0.88499,0.77798 -1.0222,-0.95356 c -1.25535,-1.17105 -4.87776,-5.67844 -4.87776,-6.06944 0,-0.1564 1.25714,-1.72429 2.79364,-3.4842 3.08734,-3.53623 5.06363,-6.66216 5.06928,-8.01814 0.002,-0.48675 -0.35031,-1.23899 -0.78297,-1.67165 -1.03491,-1.03492 -4.13901,-1.03492 -8.65327,0 -4.38788,1.00593 -5.28335,0.99123 -5.99071,-0.0983 -0.69689,-1.07344 -3.84256,-8.02852 -3.84256,-8.4959 0,-0.18327 1.54874,-0.7367 3.44164,-1.22985 6.0435,-1.57446 9.56703,-2.79126 10.34995,-3.57417 0.90488,-0.90489 0.98491,-2.72894 0.1874,-4.27117 -0.7422,-1.43525 -1.40007,-1.57183 -4.73572,-0.98315 -1.51432,0.26725 -5.37489,0.94493 -8.57905,1.50596 -3.32129,0.58154 -7.32038,1.02006 -9.30252,1.02006 -3.80197,0 -11.11155,-1.12015 -15.7482,-2.41332 -3.35427,-0.93551 -7.86661,-2.66717 -7.86661,-3.01889 0,-0.12939 1.42223,-3.0753 3.16052,-6.54646 3.41908,-6.82752 4.13335,-9.38441 2.95164,-10.56612 -0.82082,-0.82082 -3.02183,-0.8562 -4.5365,-0.0729 -1.43138,0.7402 -5.24004,3.89968 -8.96531,7.4372 -1.65224,1.56896 -3.00591,2.56983 -3.19584,2.36292 -1.67543,-1.8253 -3.08561,-4.17908 -2.90881,-4.85518 0.11313,-0.43261 2.00088,-2.76239 4.19501,-5.17729 8.61552,-9.4824 8.83636,-9.82831 7.45556,-11.67775 -1.08143,-1.44846 -2.63388,-1.7604 -5.33399,-1.07181 -2.68676,0.6852 -4.1275,1.39309 -8.77815,4.31304 l -3.49746,2.19591 -0.443,-1.28622 c -0.24365,-0.70741 -0.92212,-3.94119 -1.5077,-7.18617 -0.58559,-3.24498 -1.13945,-6.2738 -1.23081,-6.73071 -0.0914,-0.45692 -1.3684,-2.22691 -2.83788,-3.93331 -6.63691,-7.707 -9.85762,-12.31273 -13.58414,-19.42578 -3.04626,-5.81461 -4.90765,-10.74134 -5.22255,-13.82306 -0.25449,-2.49048 -0.22091,-2.64334 0.71544,-3.25686 1.35743,-0.88942 7.25425,-1.50672 11.50752,-1.20463 1.94698,0.13827 7.20054,0.7689 11.67457,1.40137 4.47402,0.63248 8.92112,1.14996 9.88243,1.14996 3.4142,0 4.02195,0.32868 9.19218,4.97132 5.33569,4.79121 8.24924,6.57225 10.4118,6.36466 0.99769,-0.0958 1.44376,-0.39962 1.85635,-1.26453 0.47119,-0.98775 0.45494,-1.45641 -0.12271,-3.53998 -0.87363,-3.15114 -3.22304,-7.5142 -6.50555,-12.081396 l -2.65446,-3.693348 1.60987,-1.071354 c 0.88543,-0.589245 1.72491,-0.943242 1.86551,-0.786661 0.14059,0.156581 1.36103,2.054681 2.71207,4.217999 6.38389,10.22206 12.953,17.10988 16.31815,17.10988 2.02401,0 2.72904,-1.12228 2.66833,-4.24757 -0.067,-3.45144 -1.40977,-7.94098 -5.04046,-16.853161 -1.61247,-3.95809 -2.93176,-7.549369 -2.93176,-7.980622 0,-0.80407 1.05411,-1.598435 2.1211,-1.598435 0.3807,0 1.601,2.045712 3.34348,5.604962 3.02545,6.179925 5.66998,10.04622 7.75148,11.332656 4.26086,2.63336 5.35732,-2.552253 2.95725,-13.986015 l -1.15556,-5.505007 1.31487,-2.164941 c 0.72317,-1.190718 2.13956,-4.545255 3.14751,-7.454528 5.06164,-14.609411 9.71991,-23.226887 12.55555,-23.226887 1.25515,0 4.27094,2.121552 6.3471,4.465065 4.76745,5.381365 10.75097,15.975621 13.91721,24.641405 0.90898,2.487816 1.99654,5.082944 2.41681,5.766951 0.42026,0.684007 3.06031,3.40335 5.86677,6.042983 2.80645,2.639638 5.10265,5.011611 5.10265,5.271052 0,0.737558 -1.88215,2.279976 -5.30997,4.351515 -5.538,3.346787 -8.05812,5.822827 -8.0618,7.920807 -0.004,2.42445 3.1215,2.79874 12.35025,1.47888 l 1.92846,-0.27581 -0.27451,1.71665 c -0.43836,2.74138 -1.61906,4.94907 -3.95859,7.40181 -1.29609,1.35883 -2.18047,2.63814 -2.18047,3.15421 0,1.11893 1.55947,2.55208 3.76297,3.45818 l 1.74071,0.71579 10e-4,16.57006 c 0.001,15.00524 -0.0606,16.62103 -0.65569,17.10988 -1.37655,1.13074 -2.88281,4.0262 -2.88281,5.54157 0,1.33597 0.19819,1.64412 1.76999,2.75202 l 1.76999,1.24761 -0.004,39.35568 c -0.004,36.80978 -0.10077,42.30566 -0.74451,42.30566 -0.13892,0 -2.107,-1.03212 -4.37351,-2.2936 z m 3.85222,-19.65917 c 0.0856,-0.25689 -0.12456,-0.46708 -0.46708,-0.46708 -0.34253,0 -0.62278,0.28025 -0.62278,0.62278 0,0.69459 0.84675,0.57363 1.08986,-0.1557 z m -1.48319,-0.67608 c 0,-0.63408 -1.04687,-1.23521 -1.44967,-0.83242 -0.28014,0.28014 0.60871,1.43476 1.1045,1.43476 0.18985,0 0.34517,-0.27106 0.34517,-0.60234 z m -1.96665,-1.16765 c 0,-0.3245 -0.177,-0.59 -0.39333,-0.59 -0.21633,0 -0.39333,0.2655 -0.39333,0.59 0,0.32449 0.177,0.58999 0.39333,0.58999 0.21633,0 0.39333,-0.2655 0.39333,-0.58999 z m -1.17999,-0.79901 c 0,-0.62802 -1.04533,-1.23676 -1.44222,-0.83987 -0.12555,0.12556 -0.12348,0.50142 0.005,0.83525 0.30164,0.78608 1.43759,0.78973 1.43759,0.005 z m -1.96666,-1.31615 c 0,-0.4958 -1.15461,-1.38464 -1.43475,-1.1045 -0.40279,0.40279 0.19834,1.44967 0.83242,1.44967 0.33128,0 0.60233,-0.15533 0.60233,-0.34517 z m -2.42554,-1.21895 c -0.26249,-0.76905 -18.54134,-18.10241 -19.08984,-18.10241 -0.9632,0 0.57274,1.76187 7.21708,8.27866 7.48205,7.33842 12.41865,11.42306 11.87276,9.82375 z M 376.01416,201.6803 c -0.0134,-0.66426 -2.86234,-4.72685 -3.4527,-4.92364 -0.90852,-0.30284 -0.45544,0.98184 1.12432,3.18795 1.54294,2.1547 2.34903,2.75559 2.32838,1.73569 z m -3.99736,-6.09211 c -0.0724,-0.3761 -0.45409,-0.7459 -0.84814,-0.82179 -0.61358,-0.11816 -0.6533,-0.02 -0.27664,0.68382 0.53242,0.99484 1.30812,1.08999 1.12478,0.13797 z m -1.10598,-1.87284 c 0,-0.3245 -0.2655,-0.58999 -0.59,-0.58999 -0.61421,0 -0.78036,0.46519 -0.32777,0.91777 0.45257,0.45258 0.91777,0.28644 0.91777,-0.32778 z m -4.71997,-29.75006 c 2.06926,-0.90632 3.45962,-2.13926 5.50731,-4.88376 l 1.48279,-1.98738 3.36272,-0.44993 c 3.83477,-0.51309 5.88555,-1.42701 8.39728,-3.74224 2.29915,-2.11929 3.64272,-4.46851 3.92663,-6.86569 0.36889,-3.11466 -1.11834,-5.23392 -3.72502,-5.30803 -2.25081,-0.064 -2.71313,0.3609 -3.61174,3.31939 -1.57673,5.19102 -4.64088,6.81849 -8.10267,4.30359 -2.62179,-1.90466 -2.63393,-1.9464 -1.51741,-5.21602 1.29318,-3.78697 1.19711,-6.05596 -0.30369,-7.17246 -0.98026,-0.72925 -1.28098,-0.76026 -3.45376,-0.35619 -4.26321,0.79282 -10.18604,4.13681 -11.88213,6.70856 -1.86292,2.82471 -0.21738,4.99161 4.80639,6.32919 4.52864,1.20575 5.1133,1.62064 5.1133,3.62849 0,2.87535 -2.05668,5.45279 -4.35108,5.45279 -0.42576,0 -1.81484,-0.28935 -3.08684,-0.643 -1.27244,-0.35377 -2.77043,-0.52814 -3.33022,-0.38764 -1.35832,0.34092 -2.35627,2.30039 -2.03736,4.00033 0.39256,2.09251 1.33701,2.86358 4.54556,3.71109 3.3402,0.88228 5.5021,0.76683 8.25994,-0.44109 z m -25.00683,-11.90442 c 5.30271,-3.10759 4.11008,-11.65879 -2.16281,-15.50746 -1.92759,-1.18265 -2.35156,-1.29066 -4.39293,-1.11916 -2.89703,0.2434 -4.53286,1.21746 -5.6765,3.38011 -2.24509,4.24554 -0.33892,10.21374 4.17797,13.08118 2.35116,1.49257 5.67315,1.56076 8.05427,0.16533 z M 298.63621,133.0441 c 0.82492,-0.92554 2.38722,-4.07151 6.10405,-12.29159 3.64933,-8.07078 3.86371,-8.75768 3.00215,-9.61925 -0.9209,-0.92089 -6.11451,-2.67441 -7.25722,-2.53978 -0.8625,0.10162 2.10039,1.12706 4.17394,2.29954 l 2.38451,1.34831 -2.69063,5.92725 c -1.47985,3.25998 -3.34937,7.38166 -4.1545,9.15928 -2.26089,4.99177 -2.1337,4.90666 -4.25235,2.84534 -3.62145,-3.52346 -9.63177,-13.55422 -12.0081,-20.04061 l -0.93665,-2.55665 -0.11782,1.60765 c -0.14043,1.91612 0.78702,4.43961 3.51781,9.57166 2.71751,5.10709 5.89815,9.84679 8.47719,12.63245 2.32963,2.51629 2.80461,2.72566 3.75762,1.6564 z m 87.35514,-6.79724 c 2.19003,-1.50063 2.81616,-2.89767 2.81502,-6.28101 -7.9e-4,-2.34211 -0.19681,-3.33354 -0.95128,-4.81143 -1.97346,-3.86565 -4.85525,-5.8085 -8.61561,-5.8085 -1.76198,0 -2.57543,0.19886 -3.36996,0.82385 -4.67002,3.67343 -2.78297,13.80431 3.08262,16.54952 2.13907,1.00112 5.18728,0.79654 7.03921,-0.47243 z m -84.30673,-17.29427 c 0,-0.21633 -0.4425,-0.39333 -0.98333,-0.39333 -0.54083,0 -0.98332,0.177 -0.98332,0.39333 0,0.21634 0.44249,0.39333 0.98332,0.39333 0.54083,0 0.98333,-0.17699 0.98333,-0.39333 z m -3.23678,-0.46708 c -0.24311,-0.72932 -1.08986,-0.85028 -1.08986,-0.15569 0,0.34253 0.28025,0.62277 0.62278,0.62277 0.34252,0 0.55271,-0.21018 0.46708,-0.46708 z M 294.998,107.7726 c 0,-0.21633 -0.2655,-0.39333 -0.59,-0.39333 -0.3245,0 -0.58999,0.177 -0.58999,0.39333 0,0.21633 0.26549,0.39333 0.58999,0.39333 0.3245,0 0.59,-0.177 0.59,-0.39333 z m -11.40659,-0.78666 c 0,-0.21633 -0.2655,-0.39333 -0.59,-0.39333 -0.32449,0 -0.58999,0.177 -0.58999,0.39333 0,0.21633 0.2655,0.39333 0.58999,0.39333 0.3245,0 0.59,-0.177 0.59,-0.39333 z M 389.70055,81.493197 c 0.0856,-0.256894 -0.12455,-0.46708 -0.46708,-0.46708 -0.34252,0 -0.62277,0.280248 -0.62277,0.622773 0,0.694594 0.84674,0.57363 1.08985,-0.155693 z m -2.26984,-0.663745 c 0,-0.324498 -0.25506,-0.589996 -0.56679,-0.589996 -0.65711,0 -1.1007,0.561391 -0.73363,0.928465 0.4701,0.470091 1.30042,0.253977 1.30042,-0.338469 z m -2.35999,-0.589996 c 0,-0.216332 -0.4425,-0.393331 -0.98333,-0.393331 -0.54083,0 -0.98332,0.176999 -0.98332,0.393331 0,0.216332 0.44249,0.39333 0.98332,0.39333 0.54083,0 0.98333,-0.176998 0.98333,-0.39333 z m 5.89996,-0.61321 c 0,-0.31173 -0.177,-0.566782 -0.39333,-0.566782 -0.21633,0 -0.39333,0.364443 -0.39333,0.809874 0,0.445431 0.177,0.700484 0.39333,0.566783 0.21633,-0.133701 0.39333,-0.498144 0.39333,-0.809875 z m -8.65327,-0.173452 c 0,-0.216332 -0.43205,-0.39333 -0.96012,-0.39333 -0.52806,0 -1.0695,0.176998 -1.2032,0.39333 -0.14183,0.229478 0.25813,0.393331 0.96011,0.393331 0.66176,0 1.20321,-0.176999 1.20321,-0.393331 z m -4.95107,-0.23788 c 0.34095,-0.130834 0.52198,-0.396332 0.40229,-0.589996 -0.27468,-0.44444 -2.53118,-0.466139 -2.53118,-0.02434 0,0.798358 0.9414,1.070019 2.12889,0.614336 z m -11.07879,-2.75457 c -0.12057,-2.320704 -0.35353,-3.038301 -0.88059,-2.712561 -0.4373,0.270273 -0.52157,2.639898 -0.14399,4.04944 0.43003,1.605321 1.12998,0.692006 1.02458,-1.336879 z m 3.04994,1.586952 c 0,-0.366284 -0.26761,-0.566936 -0.65573,-0.491663 -0.98678,0.191376 -1.12227,1.1105 -0.1637,1.1105 0.48314,0 0.81943,-0.253969 0.81943,-0.618837 z m 20.84653,-0.167824 c 0,-0.432664 -0.177,-0.786662 -0.39333,-0.786662 -0.21633,0 -0.39333,0.353998 -0.39333,0.786662 0,0.432663 0.177,0.786661 0.39333,0.786661 0.21633,0 0.39333,-0.353998 0.39333,-0.786661 z m -0.39333,-1.769988 c 0,-0.324498 -0.2655,-0.589996 -0.59,-0.589996 -0.32449,0 -0.58999,0.265498 -0.58999,0.589996 0,0.324497 0.2655,0.589996 0.58999,0.589996 0.3245,0 0.59,-0.265499 0.59,-0.589996 z m -0.94159,-2.249625 c -0.7553,-3.776491 -11.61231,-19.580227 -13.45143,-19.580227 -0.82633,0 -0.69341,0.289112 0.86793,1.887816 1.72204,1.763262 6.36576,8.738126 9.21798,13.84541 2.87093,5.140797 3.84755,6.257132 3.36552,3.847001 z m -20.4812,-6.501983 c 1.03909,-3.190895 2.73453,-7.438866 3.76764,-9.439936 1.25603,-2.432842 1.69958,-3.638308 1.33871,-3.638308 -1.28356,0 -3.7335,4.634139 -5.94685,11.248624 -0.73673,2.201699 -1.4514,4.819425 -1.58816,5.817169 -0.4782,3.488874 0.5366,1.822702 2.42866,-3.987549 z"
       id="path21"
       transform="scale(0.26458333)"
       sodipodi:nodetypes="csssssscsssssssssssssssssssssssssscssssssssssssssscssssssssssscssssssssscscssssccsssccsccssssssssssssscscccsssssssssssssssssssssscssssssssssssssssssssssssssssscsssscssssssssssssssssssssssssssssssssssssssssssssssssssssssssssssssssssssssssssssssssssssss" /><path
       style="fill:#e87f37;fill-opacity:1;stroke:none;stroke-width:0.990078"
       d="m 334.92194,150.81265 c -1.65932,-0.86519 -2.49738,-1.69427 -3.58003,-3.54168 -1.91779,-3.27247 -1.60867,-7.07187 0.73589,-9.04468 1.06064,-0.89247 1.50333,-1.01265 3.14805,-0.85461 3.96341,0.38083 6.97319,3.88883 6.97036,8.1242 -0.002,2.67505 -0.91218,4.35377 -2.86319,5.27958 -1.72251,0.81739 -2.8958,0.82728 -4.41108,0.0372 z"
       id="path22"
       transform="scale(0.26458333)" /><path
       style="fill:#e87f37;fill-opacity:1;stroke:none;stroke-width:0.990078"
       d="m 378.90475,124.08709 c -3.80262,-2.27928 -5.18047,-8.16253 -2.62338,-11.20146 2.52987,-3.00659 7.68917,-1.25926 9.82504,3.32751 1.41985,3.04911 1.15045,5.96601 -0.73712,7.98102 -1.19447,1.2751 -4.24284,1.22462 -6.46454,-0.10707 z"
       id="path23"
       transform="scale(0.26458333)" /><path
       style="fill:#e87f37;fill-opacity:1;stroke:none;stroke-width:0.990078"
       d="m 362.06088,147.14217 c -0.649,-0.16128 -1.62249,-0.52371 -2.16332,-0.8054 -4.0821,-2.1262 -2.94159,-4.48971 3.70552,-7.67898 4.39893,-2.11061 5.80179,-2.44181 6.66908,-1.57452 1.19106,1.19105 0.45246,5.84028 -1.25326,7.88885 -1.57113,1.88693 -4.46517,2.78952 -6.95802,2.17005 z"
       id="path24"
       transform="scale(0.26458333)" /><path
       style="fill:#e87f37;fill-opacity:1;stroke:none;stroke-width:0.990078"
       d="m 357.94418,162.349 c -1.62173,-0.58693 -2.81903,-2.36831 -2.08508,-3.10226 0.36887,-0.36887 0.99158,-0.3164 2.82189,0.23777 5.95415,1.80277 9.14029,-0.82171 9.41732,-7.75721 0.0791,-1.97935 0.30734,-3.44164 0.53729,-3.44164 0.21991,0 1.22004,0.59574 2.22252,1.32387 3.44661,2.50336 6.58242,2.81202 9.42919,0.92812 1.58215,-1.04702 2.5678,-2.67666 3.22977,-5.34001 0.23394,-0.94124 0.53018,-1.60652 0.65831,-1.4784 0.12812,0.12813 0.48964,0.0199 0.80337,-0.24045 1.40053,-1.16233 2.26751,2.8947 1.10075,5.15096 -0.74385,1.43845 -3.30829,3.72854 -5.41604,4.8366 -1.327,0.69762 -2.42358,0.90473 -5.11225,0.96555 -1.88258,0.0426 -3.61085,0.1936 -3.84059,0.33559 -0.22975,0.14199 -0.77028,0.94923 -1.20118,1.79387 -1.1345,2.22379 -3.02645,4.23768 -4.85979,5.17297 -1.93795,0.98868 -5.81708,1.29811 -7.70548,0.61467 z"
       id="path25"
       transform="scale(0.26458333)" /><path
       style="fill:#e87f37;fill-opacity:1;stroke:none;stroke-width:0.990078"
       d="m 328.62777,113.02098 c -2.02061,-1.06183 -11.99658,-9.69471 -11.99658,-10.38145 0,-0.16656 1.34992,-1.51102 2.99983,-2.987675 l 2.99983,-2.684836 1.56734,1.764483 c 1.88332,2.120198 5.61559,8.355358 6.89914,11.525778 0.73016,1.8035 0.82726,2.40737 0.45854,2.85165 -0.59603,0.71817 -1.44247,0.69275 -2.9281,-0.088 z"
       id="path26"
       transform="scale(0.26458333)" /><path
       style="fill:#e87f37;fill-opacity:1;stroke:none;stroke-width:0.990078"
       d="m 345.58911,112.92686 c -2.01614,-1.3393 -8.63397,-9.36939 -13.78054,-16.721334 l -3.00344,-4.29046 1.78235,-1.267207 c 2.6936,-1.915074 7.25672,-4.209578 7.88908,-3.966917 1.3966,0.535925 8.56671,17.569898 9.67341,22.981028 0.7332,3.58493 -0.23017,4.81314 -2.56086,3.26489 z"
       id="path27"
       transform="scale(0.26458333)" /><path
       style="fill:#e87f37;fill-opacity:1;stroke:none;stroke-width:0.990078"
       d="m 353.02691,97.272887 c -2.05747,-3.235675 -6.98667,-13.4763 -6.76487,-14.054299 0.21292,-0.554868 4.93272,-2.192471 6.319,-2.192471 0.5098,0 1.12031,0.233035 1.35669,0.517856 0.70823,0.853369 2.36122,7.591501 2.87783,11.731005 0.56995,4.566926 0.27096,5.977228 -1.30621,6.161227 -0.87725,0.102344 -1.24625,-0.219217 -2.48244,-2.163318 z"
       id="path28"
       transform="scale(0.26458333)" /><path
       style="fill:#e87f37;fill-opacity:1;stroke:none;stroke-width:0.990078"
       d="m 305.49716,165.89849 c -2.504,-4.47757 -2.50136,-4.43389 -0.36213,-5.99509 2.84751,-2.07809 10.31031,-5.75044 12.18448,-5.99582 1.47791,-0.1935 1.67166,-0.12853 1.67166,0.56057 0,1.21462 -2.08108,3.82126 -7.27762,9.11554 l -4.78477,4.87477 z"
       id="path29"
       transform="scale(0.26458333)" /><path
       style="fill:#e87f37;fill-opacity:1;stroke:none;stroke-width:0.990078"
       d="m 316.53285,179.35486 c -1.46024,-1.07729 -2.65498,-2.12395 -2.65498,-2.32592 0,-0.6644 6.04416,-6.32647 8.65328,-8.10625 5.04029,-3.43818 5.90062,-2.21779 2.79931,3.97086 -2.15429,4.29889 -4.939,8.43522 -5.67261,8.42595 -0.25851,-0.003 -1.66476,-0.88735 -3.125,-1.96464 z"
       id="path30"
       transform="scale(0.26458333)" /><path
       style="fill:#e87f37;fill-opacity:1;stroke:none;stroke-width:0.990078"
       d="m 395.84468,107.21334 c -0.52574,-1.37006 1.83161,-3.5491 6.56458,-6.06802 4.88274,-2.598638 4.68798,-2.650263 4.68798,1.24265 0,2.41506 -0.15498,3.45027 -0.56781,3.7929 -1.69582,1.4074 -10.22462,2.23154 -10.68475,1.03247 z"
       id="path31"
       transform="scale(0.26458333)" /><path
       style="fill:#e87f37;fill-opacity:1;stroke:none;stroke-width:0.990078"
       d="m 405.45107,122.29334 c -2.17613,-1.12117 -2.20798,-1.48851 -0.2839,-3.27483 l 1.7334,-1.60931 0.12208,1.47499 c 0.0671,0.81125 0.0671,2.07821 0,2.81547 l -0.12208,1.34048 z"
       id="path32"
       transform="scale(0.26458333)" /><path
       style="fill:#e87f37;fill-opacity:1;stroke:none;stroke-width:0.990078"
       d="m 363.74834,213.94668 c -0.56142,-0.7433 -1.67295,-2.54471 -2.47006,-4.00314 l -1.44929,-2.65168 0.9259,-0.35203 c 0.93577,-0.35578 5.85766,-1.37154 8.8102,-1.81822 1.21964,-0.18452 1.73226,-0.0885 2.13818,0.40065 0.77138,0.92944 -0.26795,2.66603 -3.93868,6.58104 l -2.99547,3.19483 z"
       id="path33"
       transform="scale(0.26458333)" /><path
       style="fill:#c15c16;fill-opacity:1;stroke:none;stroke-width:0.990078"
       d="m 376.38007,229.50294 c -1.60193,-1.40919 -2.96462,-2.71574 -3.0282,-2.90345 -0.16344,-0.48251 7.21571,-7.07334 8.44089,-7.53915 1.29429,-0.49209 2.09797,0.1227 2.09797,1.60489 0,2.26457 -3.39854,11.39986 -4.24101,11.39986 -0.19638,0 -1.66772,-1.15297 -3.26965,-2.56215 z"
       id="path34"
       transform="scale(0.26458333)" /><path
       style="fill:#7e330e;fill-opacity:1;stroke:none;stroke-width:0.990078"
       d="m 360.44134,146.35293 c -2.97192,-1.34959 -3.37731,-3.01615 -1.18607,-4.87596 1.45153,-1.23199 8.5853,-4.5979 9.74486,-4.5979 1.31939,0 1.72197,1.05902 1.42023,3.73604 -0.58423,5.18328 -5.26876,7.87683 -9.97902,5.73782 z"
       id="path35"
       transform="scale(0.26458333)" /><path
       style="fill:#7e330e;fill-opacity:1;stroke:none;stroke-width:0.990078"
       d="m 327.63001,112.05155 c -2.37192,-1.70744 -8.1658,-6.65087 -9.62217,-8.20979 l -1.17999,-1.26309 2.89015,-2.682834 2.89014,-2.682838 1.07627,1.248163 c 2.95684,3.429109 7.46896,11.423519 7.61643,13.494519 0.11912,1.67289 -1.42408,1.71319 -3.67083,0.0959 z"
       id="path36"
       transform="scale(0.26458333)" /><path
       style="fill:#7e330e;fill-opacity:1;stroke:none;stroke-width:0.990078"
       d="m 344.02795,111.19497 c -1.14949,-1.17738 -3.17109,-3.46375 -4.49245,-5.08082 -2.81746,-3.448 -10.31773,-13.689488 -10.31773,-14.088682 0,-0.624286 7.78061,-5.099391 8.86602,-5.099391 0.7471,0 2.11092,2.452622 4.70242,8.456609 4.95668,11.483614 6.3866,17.519354 4.22324,17.826424 -0.65124,0.0924 -1.4548,-0.45041 -2.9815,-2.01414 z"
       id="path37"
       transform="scale(0.26458333)" /><path
       style="fill:#7e330e;fill-opacity:1;stroke:none;stroke-width:0.990078"
       d="m 353.45441,97.546188 c -1.34329,-2.029853 -6.93009,-13.287504 -6.93009,-13.964446 0,-0.980919 5.6879,-2.729021 6.81934,-2.095835 1.32799,0.743176 3.5578,10.82512 3.33452,15.076771 -0.11591,2.207302 -0.18968,2.367628 -1.14021,2.478134 -0.81482,0.09473 -1.22784,-0.201549 -2.08356,-1.494624 z"
       id="path38"
       transform="scale(0.26458333)" /><path
       style="fill:#7e330e;fill-opacity:1;stroke:none;stroke-width:0.990078"
       d="m 396.96897,107.50619 c -2.26563,-0.46499 -0.11837,-2.95151 5.15368,-5.96795 4.03263,-2.307299 4.43997,-2.384273 4.76584,-0.90059 0.30219,1.37586 -0.10532,4.74726 -0.65775,5.44169 -0.63035,0.79235 -7.32674,1.82399 -9.26177,1.42685 z"
       id="path39"
       transform="scale(0.26458333)" /><path
       style="fill:#7e330e;fill-opacity:1;stroke:none;stroke-width:0.990078"
       d=""
       id="path40"
       transform="scale(0.26458333)" /><path
       style="fill:#7e330e;fill-opacity:1;stroke:none;stroke-width:0.990078"
       d="m 316.69654,179.17919 c -1.33394,-0.98199 -2.42534,-1.99803 -2.42534,-2.25787 0,-0.93347 7.69144,-7.67579 10.23887,-8.97539 2.01786,-1.02943 2.3477,-0.98711 2.34778,0.30126 1.3e-4,2.13597 -5.78743,12.3356 -7.15121,12.60284 -0.32162,0.063 -1.67617,-0.68886 -3.0101,-1.67084 z"
       id="path41"
       transform="scale(0.26458333)" /><path
       style="fill:#7e330e;fill-opacity:1;stroke:none;stroke-width:0.990078"
       d=""
       id="path42"
       transform="scale(0.26458333)" /><path
       style="fill:#7e330e;fill-opacity:1;stroke:none;stroke-width:0.990078"
       d="m 305.5424,165.56469 c -2.19237,-3.95375 -2.19742,-4.0694 -0.24039,-5.50858 2.9479,-2.16784 11.03967,-5.9465 12.42491,-5.80212 l 1.23091,0.1283 -0.65167,1.33865 c -0.35842,0.73626 -3.06135,3.82135 -6.00651,6.85576 l -5.35483,5.51711 z"
       id="path43"
       transform="scale(0.26458333)" /><path
       style="fill:#7e330e;fill-opacity:1;stroke:none;stroke-width:0.990078"
       d="m 363.15295,212.65398 c -2.17813,-3.3357 -2.98774,-5.00997 -2.60053,-5.37787 0.49603,-0.47129 8.63971,-2.02673 9.86825,-1.88483 2.25123,0.26004 1.41682,2.00701 -3.49007,7.30703 l -2.19827,2.37441 z"
       id="path44"
       transform="scale(0.26458333)" /><path
       style="fill:#7e330e;fill-opacity:1;stroke:none;stroke-width:0.990078"
       d="m 376.43985,229.27684 c -1.52664,-1.31721 -2.77572,-2.54419 -2.77572,-2.72663 0,-0.50367 6.13635,-5.97951 7.70432,-6.87503 1.30906,-0.74766 1.40318,-0.75231 1.89818,-0.0938 0.64723,0.86104 0.313,2.86297 -1.16482,6.97705 -1.28267,3.5708 -2.0445,5.1133 -2.52541,5.1133 -0.19846,0 -1.6099,-1.07772 -3.13655,-2.39492 z"
       id="path45"
       transform="scale(0.26458333)" /><path
       style="fill:#3e1a07;fill-opacity:1;stroke:none;stroke-width:0.990078"
       d="m 405.22892,121.93682 c -0.70308,-0.42868 -1.27833,-0.92429 -1.27833,-1.10137 0,-0.17707 0.6195,-0.92239 1.37666,-1.65626 l 1.37666,-1.33431 v 2.43715 c 0,1.34042 -0.0443,2.43648 -0.0983,2.43567 -0.0541,-8.1e-4 -0.67357,-0.35221 -1.37665,-0.78088 z"
       id="path46"
       transform="scale(0.26458333)" /><path
       style="fill:#c77317;fill-opacity:1;stroke:none;stroke-width:0.990078"
       d="m 399.41508,251.7662 c -13.23889,-6.94922 -22.8069,-13.82647 -30.28432,-21.76764 -8.00717,-8.50378 -13.408,-17.30248 -18.28774,-29.79325 -1.14094,-2.92048 -2.26965,-5.50479 -2.50824,-5.74292 -0.23859,-0.23812 -3.34626,-0.73879 -6.90592,-1.11258 -16.82035,-1.7663 -27.68465,-7.20308 -35.7302,-17.88032 -4.55995,-6.05151 -7.54265,-13.08835 -10.10527,-23.84052 l -1.40616,-5.89996 -3.56093,-4.91663 c -11.15637,-15.40378 -15.92277,-24.49498 -17.45798,-33.2985 -0.71757,-4.11488 -0.37664,-5.99579 1.42342,-7.852987 0.70907,-0.731576 2.27183,-1.722033 3.47279,-2.201016 3.11328,-1.241682 10.71131,-1.160113 22.62276,0.24287 4.96793,0.585146 9.68905,0.952993 10.49138,0.817444 1.10047,-0.185924 2.64967,-1.263095 6.30729,-4.385511 9.48239,-8.094867 18.35526,-13.089194 29.96604,-16.867175 l 6.34893,-2.06585 2.7845,-7.609364 c 4.59979,-12.570109 6.88697,-17.186305 10.36452,-20.918621 2.28313,-2.450397 3.65494,-3.135227 6.32085,-3.155471 4.75649,-0.03612 10.18063,4.630098 16.53839,14.227458 3.46376,5.228715 6.03849,10.294037 8.79792,17.30834 1.21841,3.097124 3.0088,7.329186 3.97863,9.404579 0.96984,2.075394 1.68237,3.85442 1.5834,3.95339 -0.32583,0.325823 -5.00052,-4.402515 -5.94102,-6.009192 -0.50653,-0.865327 -1.55985,-3.254811 -2.3407,-5.309964 -2.28485,-6.013584 -7.44222,-16.026645 -10.30315,-20.003599 -5.06483,-7.040581 -9.01952,-10.413972 -12.2085,-10.413972 -1.71203,0 -1.94856,0.13648 -3.93479,2.270377 -2.64043,2.836741 -5.99469,9.643664 -9.72116,19.727494 -1.44651,3.914273 -2.92814,7.609722 -3.2925,8.212109 -0.57155,0.944907 -1.60715,1.401746 -7.5444,3.328093 -13.62724,4.421374 -21.15391,9.045055 -31.92598,19.612319 l -3.41089,3.346039 -7.60237,-1.23112 c -10.30109,-1.66815 -13.82745,-2.030537 -19.59896,-2.014116 -8.05447,0.02292 -10.33462,1.287186 -10.2819,5.700976 0.0392,3.28026 1.71186,8.12958 5.14928,14.92844 3.52018,6.96257 6.10441,10.95951 11.49882,17.78481 2.18581,2.7656 4.21287,5.595 4.50458,6.28755 0.2917,0.69255 0.98653,3.43603 1.54405,6.09662 1.80737,8.62511 4.69733,15.74098 8.45085,20.80827 4.31199,5.82123 11.96274,12.26485 17.41179,14.66457 10.21548,4.49881 20.08858,5.2425 34.38816,2.59027 7.36451,-1.36594 8.41842,-1.33918 7.82825,0.19877 -0.34286,0.89349 -2.21487,1.59036 -7.37771,2.74639 -7.36858,1.64994 -7.69769,1.95585 -6.25438,5.81344 1.14835,3.06924 5.48834,11.41764 8.45214,16.25853 7.7098,12.59272 19.28733,23.90503 32.32744,31.58686 7.01784,4.13416 8.27414,5.04453 9.57939,6.94163 0.68618,0.99733 1.1808,1.88014 1.09915,1.96179 -0.0817,0.0816 -2.44395,-1.05647 -5.24955,-2.52915 z"
       id="path47"
       transform="scale(0.26458333)" /></g><g
     inkscape:groupmode="layer"
     id="layer3"
     inkscape:label="Layer 3" /></svg>
